<?xml version="1.0" encoding="utf-8"?>
<!-- Generator: Adobe Illustrator 24.1.2, SVG Export Plug-In . SVG Version: 6.00 Build 0)  -->
<svg version="1.1" id="Layer_1" xmlns="http://www.w3.org/2000/svg" xmlns:xlink="http://www.w3.org/1999/xlink" x="0px" y="0px"
	 viewBox="0 0 1024 1024" style="enable-background:new 0 0 1024 1024;" xml:space="preserve">
<style type="text/css">
	.st0{display:none;fill:url(#SVGID_1_);}
	.st1{fill:#FFFFFF;}
</style>
<linearGradient id="SVGID_1_" gradientUnits="userSpaceOnUse" x1="961.0503" y1="45.6173" x2="89.8267" y2="952.4085" gradientTransform="matrix(1 0 0 -1 0 1025)">
	<stop  offset="0" style="stop-color:#CBCBCB"/>
	<stop  offset="1" style="stop-color:#D1D1D1"/>
</linearGradient>
<path class="st0" d="M64,0v64h64V0H64z M128,64v64h64V64H128z M192,64h64V0h-64V64z M256,64v64h64V64H256z M320,64h64V0h-64V64z
	 M384,64v64h64V64H384z M448,64h64V0h-64V64z M512,64v64h64V64H512z M576,64h64V0h-64V64z M640,64v64h64V64H640z M704,64h64V0h-64
	V64z M768,64v64h64V64H768z M832,64h64V0h-64V64z M896,64v64h64V64H896z M960,64h64V0h-64V64z M960,128v64h64v-64H960z M960,192h-64
	v64h64V192z M960,256v64h64v-64H960z M960,320h-64v64h64V320z M960,384v64h64v-64H960z M960,448h-64v64h64V448z M960,512v64h64v-64
	H960z M960,576h-64v64h64V576z M960,640v64h64v-64H960z M960,704h-64v64h64V704z M960,768v64h64v-64H960z M960,832h-64v64h64V832z
	 M960,896v64h64v-64H960z M960,960h-64v64h64V960z M896,960v-64h-64v64H896z M832,960h-64v64h64V960z M768,960v-64h-64v64H768z
	 M704,960h-64v64h64V960z M640,960v-64h-64v64H640z M576,960h-64v64h64V960z M512,960v-64h-64v64H512z M448,960h-64v64h64V960z
	 M384,960v-64h-64v64H384z M320,960h-64v64h64V960z M256,960v-64h-64v64H256z M192,960h-64v64h64V960z M128,960v-64H64v64H128z
	 M64,960H0v64h64V960z M64,896v-64H0v64H64z M64,832h64v-64H64V832z M64,768v-64H0v64H64z M64,704h64v-64H64V704z M64,640v-64H0v64
	H64z M64,576h64v-64H64V576z M64,512v-64H0v64H64z M64,448h64v-64H64V448z M64,384v-64H0v64H64z M64,320h64v-64H64V320z M64,256v-64
	H0v64H64z M64,192h64v-64H64V192z M64,128V64H0v64H64z M128,192v64h64v-64H128z M192,192h64v-64h-64V192z M256,192v64h64v-64H256z
	 M320,192h64v-64h-64V192z M384,192v64h64v-64H384z M448,192h64v-64h-64V192z M512,192v64h64v-64H512z M576,192h64v-64h-64V192z
	 M640,192v64h64v-64H640z M704,192h64v-64h-64V192z M768,192v64h64v-64H768z M832,192h64v-64h-64V192z M832,256v64h64v-64H832z
	 M832,320h-64v64h64V320z M832,384v64h64v-64H832z M832,448h-64v64h64V448z M832,512v64h64v-64H832z M832,576h-64v64h64V576z
	 M832,640v64h64v-64H832z M832,704h-64v64h64V704z M832,768v64h64v-64H832z M832,832h-64v64h64V832z M768,832v-64h-64v64H768z
	 M704,832h-64v64h64V832z M640,832v-64h-64v64H640z M576,832h-64v64h64V832z M512,832v-64h-64v64H512z M448,832h-64v64h64V832z
	 M384,832v-64h-64v64H384z M320,832h-64v64h64V832z M256,832v-64h-64v64H256z M192,832h-64v64h64V832z M192,768v-64h-64v64H192z
	 M192,704h64v-64h-64V704z M192,640v-64h-64v64H192z M192,576h64v-64h-64V576z M192,512v-64h-64v64H192z M192,448h64v-64h-64V448z
	 M192,384v-64h-64v64H192z M192,320h64v-64h-64V320z M256,320v64h64v-64H256z M320,320h64v-64h-64V320z M384,320v64h64v-64H384z
	 M448,320h64v-64h-64V320z M512,320v64h64v-64H512z M576,320h64v-64h-64V320z M640,320v64h64v-64H640z M704,320h64v-64h-64V320z
	 M704,384v64h64v-64H704z M704,448h-64v64h64V448z M704,512v64h64v-64H704z M704,576h-64v64h64V576z M704,640v64h64v-64H704z
	 M704,704h-64v64h64V704z M640,704v-64h-64v64H640z M576,704h-64v64h64V704z M512,704v-64h-64v64H512z M448,704h-64v64h64V704z
	 M384,704v-64h-64v64H384z M320,704h-64v64h64V704z M320,640v-64h-64v64H320z M320,576h64v-64h-64V576z M320,512v-64h-64v64H320z
	 M320,448h64v-64h-64V448z M384,448v64h64v-64H384z M448,448h64v-64h-64V448z M512,448v64h64v-64H512z M576,448h64v-64h-64V448z
	 M576,512v64h64v-64H576z M576,576h-64v64h64V576z M512,576v-64h-64v64H512z M448,576h-64v64h64V576z"/>
<g>
	<g>
		<path class="st1" d="M55,0h379.2c30.5,0,55,24.6,55,55c0,30.5-24.6,55-55,55H55C24.5,110,0,85.5,0,55C0,24.6,24.5,0,55,0z"/>
		<path class="st1" d="M55,201h379.2c30.5,0,55,24.5,55,55s-24.6,55-55,55H55c-30.5,0-55-24.5-55-55S24.5,201,55,201z"/>
		<path class="st1" d="M55,402h379.2c30.5,0,55,24.5,55,55c0,30.5-24.6,55-55,55H55c-30.5,0-55-24.5-55-55C0,426.5,24.5,402,55,402z
			"/>
	</g>
</g>
</svg>
