<svg width="150" height="150" viewBox="0 0 150 150" fill="none" xmlns="http://www.w3.org/2000/svg">
<path d="M38.0361 149.469C29.1155 149.064 24.2696 147.579 21.0465 146.322C16.7756 144.659 13.7308 142.68 10.5255 139.479C7.32012 136.278 5.33629 133.233 3.68235 128.962C2.42518 125.739 0.940648 120.893 0.534966 111.973C0.089161 102.33 0 99.4368 0 75.0067C0 50.5766 0.0980771 47.6878 0.530508 38.0361C0.93619 29.1155 2.42964 24.2785 3.67789 21.0465C5.34074 16.7756 7.32458 13.7308 10.521 10.521C13.7219 7.32012 16.7667 5.33183 21.042 3.67789C24.2652 2.42072 29.1111 0.93619 38.0316 0.530508C47.6788 0.089161 50.5766 0 74.9978 0C99.4279 0 102.317 0.0980771 111.968 0.530508C120.889 0.93619 125.726 2.42964 128.958 3.67789C133.229 5.33183 136.274 7.32012 139.479 10.521C142.684 13.7219 144.659 16.7712 146.322 21.042C147.579 24.2652 149.064 29.1111 149.469 38.0316C149.911 47.6833 150 50.5721 150 75.0022C150 99.4234 149.911 102.321 149.469 111.973C149.064 120.893 147.57 125.739 146.322 128.962C144.659 133.233 142.68 136.278 139.479 139.479C136.278 142.68 133.229 144.659 128.958 146.322C125.735 147.579 120.889 149.064 111.968 149.469C102.326 149.911 99.4279 150 74.9978 150C50.5766 150 47.6788 149.915 38.0361 149.469Z" fill="url(#paint0_radial_942_78)"/>
<path d="M38.0361 149.469C29.1155 149.064 24.2696 147.579 21.0465 146.322C16.7756 144.659 13.7308 142.68 10.5255 139.479C7.32012 136.278 5.33629 133.233 3.68235 128.962C2.42518 125.739 0.940648 120.893 0.534966 111.973C0.089161 102.33 0 99.4368 0 75.0067C0 50.5766 0.0980771 47.6878 0.530508 38.0361C0.93619 29.1155 2.42964 24.2785 3.67789 21.0465C5.34074 16.7756 7.32458 13.7308 10.521 10.521C13.7219 7.32012 16.7667 5.33183 21.042 3.67789C24.2652 2.42072 29.1111 0.93619 38.0316 0.530508C47.6788 0.089161 50.5766 0 74.9978 0C99.4279 0 102.317 0.0980771 111.968 0.530508C120.889 0.93619 125.726 2.42964 128.958 3.67789C133.229 5.33183 136.274 7.32012 139.479 10.521C142.684 13.7219 144.659 16.7712 146.322 21.042C147.579 24.2652 149.064 29.1111 149.469 38.0316C149.911 47.6833 150 50.5721 150 75.0022C150 99.4234 149.911 102.321 149.469 111.973C149.064 120.893 147.57 125.739 146.322 128.962C144.659 133.233 142.68 136.278 139.479 139.479C136.278 142.68 133.229 144.659 128.958 146.322C125.735 147.579 120.889 149.064 111.968 149.469C102.326 149.911 99.4279 150 74.9978 150C50.5766 150 47.6788 149.915 38.0361 149.469Z" fill="url(#paint1_radial_942_78)"/>
<path d="M56.5838 75.3194C56.5838 65.0609 64.8977 56.7427 75.1561 56.7427C85.4145 56.7427 93.7328 65.0609 93.7328 75.3194C93.7328 85.5778 85.4145 93.896 75.1561 93.896C64.8977 93.896 56.5838 85.5778 56.5838 75.3194ZM46.5416 75.3194C46.5416 91.1231 59.3523 103.934 75.1561 103.934C90.9599 103.934 103.771 91.1231 103.771 75.3194C103.771 59.5156 90.9599 46.7049 75.1561 46.7049C59.3523 46.7049 46.5421 59.5147 46.5421 75.3194H46.5416ZM98.2167 45.5704C98.2162 46.8929 98.6079 48.186 99.3422 49.2859C100.077 50.3859 101.121 51.2434 102.342 51.7501C103.564 52.2567 104.909 52.3896 106.206 52.1321C107.503 51.8746 108.695 51.2382 109.63 50.3034C110.566 49.3686 111.203 48.1773 111.462 46.8802C111.72 45.5832 111.589 44.2386 111.083 43.0165C110.577 41.7944 109.721 40.7496 108.621 40.0144C107.522 39.2792 106.229 38.8865 104.906 38.886H104.904C103.131 38.8868 101.431 39.5912 100.177 40.8445C98.9234 42.0978 98.2183 43.7976 98.2167 45.5704ZM52.6429 120.679C47.2099 120.432 44.2569 119.527 42.2944 118.762C39.6927 117.749 37.8364 116.543 35.8847 114.594C33.9329 112.645 32.7248 110.79 31.7164 108.189C30.9514 106.227 30.0464 103.273 29.7994 97.8401C29.5293 91.9662 29.4753 90.2017 29.4753 75.3203C29.4753 60.4388 29.5337 58.6792 29.7994 52.8004C30.0468 47.3674 30.9585 44.4193 31.7164 42.452C32.7292 39.8502 33.9356 37.9939 35.8847 36.0422C37.8337 34.0904 39.6883 32.8823 42.2944 31.8739C44.256 31.1089 47.2099 30.2039 52.6429 29.9569C58.5169 29.6868 60.2814 29.6328 75.1561 29.6328C90.0308 29.6328 91.7971 29.6903 97.676 29.9578C103.109 30.2052 106.057 31.1169 108.024 31.8748C110.626 32.8832 112.482 34.094 114.434 36.0431C116.386 37.9921 117.59 39.8511 118.603 42.4528C119.368 44.4144 120.272 47.3683 120.519 52.8013C120.79 58.6801 120.844 60.4397 120.844 75.3211C120.844 90.2026 120.79 91.9622 120.519 97.841C120.272 103.274 119.363 106.227 118.603 108.189C117.59 110.791 116.383 112.647 114.434 114.595C112.485 116.542 110.626 117.75 108.024 118.763C106.063 119.528 103.109 120.433 97.676 120.68C91.802 120.95 90.0375 121.004 75.1561 121.004C60.2747 121.004 58.5151 120.95 52.6429 120.68V120.679ZM52.1815 19.9312C46.2492 20.2014 42.1955 21.142 38.6553 22.5196C34.9913 23.9421 31.8853 25.8506 28.7839 28.9472C25.6824 32.0437 23.7788 35.1501 22.3562 38.8186C20.9787 42.361 20.0381 46.4125 19.7679 52.3448C19.4933 58.2865 19.4304 60.1861 19.4304 75.3194C19.4304 90.4527 19.4933 92.3522 19.7679 98.2939C20.0381 104.227 20.9787 108.278 22.3562 111.82C23.7788 115.484 25.6828 118.596 28.7839 121.692C31.8849 124.787 34.9868 126.693 38.6553 128.119C42.2022 129.497 46.2492 130.437 52.1815 130.707C58.1263 130.978 60.0228 131.045 75.1561 131.045C90.2894 131.045 92.189 130.982 98.1307 130.707C104.063 130.437 108.115 129.497 111.657 128.119C115.321 126.693 118.427 124.788 121.528 121.692C124.63 118.595 126.529 115.484 127.956 111.82C129.333 108.278 130.279 104.226 130.544 98.2939C130.814 92.3478 130.877 90.4527 130.877 75.3194C130.877 60.1861 130.814 58.2865 130.544 52.3448C130.274 46.412 129.333 42.3588 127.956 38.8186C126.529 35.1546 124.625 32.0486 121.528 28.9472C118.432 25.8457 115.321 23.9421 111.661 22.5196C108.114 21.142 104.063 20.1969 98.1351 19.9312C92.1926 19.6597 90.2939 19.5938 75.1628 19.5938C60.0317 19.5938 58.1286 19.6566 52.1838 19.9312" fill="white"/>
<defs>
<radialGradient id="paint0_radial_942_78" cx="0" cy="0" r="1" gradientUnits="userSpaceOnUse" gradientTransform="translate(9.70785 146.714) scale(190.444)">
<stop offset="0.09" stop-color="#FA8F21"/>
<stop offset="0.78" stop-color="#D82D7E"/>
</radialGradient>
<radialGradient id="paint1_radial_942_78" cx="0" cy="0" r="1" gradientUnits="userSpaceOnUse" gradientTransform="translate(103.9 141.897) scale(167.593)">
<stop offset="0.64" stop-color="#8C3AAA" stop-opacity="0"/>
<stop offset="1" stop-color="#8C3AAA"/>
</radialGradient>
</defs>
</svg>
