<?xml version="1.0" encoding="utf-8"?>
<!-- Generator: Adobe Illustrator 24.1.2, SVG Export Plug-In . SVG Version: 6.00 Build 0)  -->
<svg version="1.1" id="Ñëîé_1" xmlns="http://www.w3.org/2000/svg" xmlns:xlink="http://www.w3.org/1999/xlink" x="0px" y="0px"
	 viewBox="0 0 1020 870" style="enable-background:new 0 0 1020 870;" xml:space="preserve">
<style type="text/css">
	.white{fill:#FFFFFF;}
	.gray{fill:#8A8A8A;}
	.st0{fill:#CACACA;}
	.st1{fill:#FEFEFE;}
	.st2{fill:#FDFDFD;}
	.st3{fill:#FCFCFC;}
	.st4{fill:#FAFAFA;}
	.st5{fill:#F9F9F9;}
	.st6{fill:#F8F8F8;}
	.st7{fill:#F7F7F7;}
	.st8{fill:#F6F6F6;}
	.st9{fill:#F5F5F5;}
	.st10{fill:#F3F3F3;}
	.st11{fill:#F2F2F2;}
	.st12{fill:#F1F1F1;}
	.st13{fill:#F0F0F0;}
	.st14{fill:#EFEFEF;}
	.st15{fill:#EEEEEE;}
	.st16{fill:#ECECEC;}
	.st17{fill:#EBEBEB;}
	.st18{fill:#EAEAEA;}
	.st19{fill:#E9E9E9;}
	.st20{fill:#E8E8E8;}
	.st21{fill:#E7E7E7;}
	.st22{fill:#E6E6E6;}
	.st23{fill:#E4E4E4;}
	.st24{fill:#E3E3E3;}
	.st25{fill:#E2E2E2;}
	.st26{fill:#E1E1E1;}
	.st27{fill:#E0E0E0;}
	.st28{fill:#DFDFDF;}
	.st29{fill:#DDDDDD;}
	.st30{fill:#DCDCDC;}
	.st31{fill:#DBDBDB;}
	.st32{fill:#DADADA;}
	.st33{fill:#D9D9D9;}
	.st34{fill:#D8D8D8;}
	.st35{fill:#D6D6D6;}
	.st36{fill:#D5D5D5;}
	.st37{fill:#D4D4D4;}
	.st38{fill:#D3D3D3;}
	.st39{fill:#D2D2D2;}
	.st40{fill:#D1D1D1;}
	.st41{fill:#D0D0D0;}
	.st42{fill:#CECECE;}
	.st43{fill:#CDCDCD;}
	.st44{fill:#CCCCCC;}
	.st45{fill:#CBCBCB;}
	.st46{fill:#C9C9C9;}
	.st47{fill:#C7C7C7;}
	.st48{fill:#C6C6C6;}
	.st49{fill:#C5C5C5;}
	.st50{fill:#C4C4C4;}
	.st51{fill:#C3C3C3;}
	.st52{fill:#C2C2C2;}
	.st53{fill:#C0C0C0;}
	.st54{fill:#BFBFBF;}
	.st55{fill:#BEBEBE;}
	.st56{fill:#BDBDBD;}
	.st57{fill:#BCBCBC;}
	.st58{fill:#BBBBBB;}
	.st59{fill:#B9B9B9;}
	.st60{fill:#B8B8B8;}
	.st61{fill:#B7B7B7;}
	.st62{fill:#B6B6B6;}
	.st63{fill:#B5B5B5;}
	.st64{fill:#B4B4B4;}
	.st65{fill:#B3B3B3;}
	.st66{fill:#B1B1B1;}
	.st67{fill:#B0B0B0;}
	.st68{fill:#AFAFAF;}
	.st69{fill:#AEAEAE;}
	.st70{fill:#ADADAD;}
	.st71{fill:#ACACAC;}
	.st72{fill:#AAAAAA;}
	.st73{fill:#A9A9A9;}
	.st74{fill:#A8A8A8;}
	.st75{fill:#A7A7A7;}
	.st76{fill:#A6A6A6;}
	.st77{fill:#A5A5A5;}
	.st78{fill:#A3A3A3;}
	.st79{fill:#A2A2A2;}
	.st80{fill:#A1A1A1;}
	.st81{fill:#A0A0A0;}
	.st82{fill:#9F9F9F;}
	.st83{fill:#9E9E9E;}
	.st84{fill:#9D9D9D;}
	.st85{fill:#9B9B9B;}
	.st86{fill:#9A9A9A;}
	.st87{fill:#999999;}
	.st88{fill:#989898;}
	.st89{fill:#979797;}
	.st90{fill:#969696;}
	.st91{fill:#949494;}
	.st92{fill:#939393;}
	.st93{fill:#929292;}
	.st94{fill:#919191;}
	.st95{fill:#909090;}
	.st96{fill:#8F8F8F;}
	.st97{fill:#8D8D8D;}
	.st98{fill:#8C8C8C;}
	.st99{fill:#8B8B8B;}
</style>
<path class="st0" d="M240,120h-30v30h30V120z M-30-150h-30v30h30V-150z M90-120v-30H60v30H90z M360,150v-30h-30v30H360z M300,630v30
	h30v-30H300z M30-120v-30H0v30H30z M360,630v30h30v-30H360z M300,150v-30h-30v30H300z M300,540h-30v30h30V540z M420,150v-30h-30v30
	H420z M1020,540h30v-30h-30V540z M1020,600h30v-30h-30V600z M300,600h-30v30h30V600z M-30,90h-30v30h30V90z M240,660h-30v30h30V660z
	 M240,600h-30v30h30V600z M540,210v-30h-30v30H540z M480,210v-30h-30v30H480z M240,540h-30v30h30V540z M240,480h-30v30h30V480z
	 M420,210v-30h-30v30H420z M1020,840h30v-30h-30V840z M-30,210h-30v30h30V210z M660,210v-30h-30v30H660z M300,690v30h30v-30H300z
	 M1020,960h30v-30h-30V960z M-30,150h-30v30h30V150z M600,210v-30h-30v30H600z M240,690v30h30v-30H240z M1020,900h30v-30h-30V900z
	 M1020,660h30v-30h-30V660z M1020,720h30v-30h-30V720z M300,420h-30v30h30V420z M300,360h-30v30h30V360z M240,300h-30v30h30V300z
	 M-30-90h-30v30h30V-90z M240,180h-30v30h30V180z M240,240h-30v30h30V240z M300,480h-30v30h30V480z M300,240h-30v30h30V240z
	 M300,300h-30v30h30V300z M240,420h-30v30h30V420z M300,180h-30v30h30V180z M-30,30h-30v30h30V30z M1020,780h30v-30h-30V780z
	 M240,360h-30v30h30V360z M360,210v-30h-30v30H360z M-30-30h-30V0h30V-30z M570,660v30h30v-30H570z M630,660v30h30v-30H630z M1020,0
	h30v-30h-30V0z M390,180v-30h-30v30H390z M750-120v-30h-30v30H750z M270,630h-30v30h30V630z M270,150h-30v30h30V150z M690,180v-30
	h-30v30H690z M690-120v-30h-30v30H690z M330,180v-30h-30v30H330z M450,180v-30h-30v30H450z M750,630h30v-30h-30V630z M690,660v30h30
	v-30H690z M1020,120h30V90h-30V120z M570-120v-30h-30v30H570z M630,180v-30h-30v30H630z M510,180v-30h-30v30H510z M750,690h30v-30
	h-30V690z M1020,60h30V30h-30V60z M570,180v-30h-30v30H570z M630-120v-30h-30v30H630z M1050-120v-30h-30v30H1050z M870-120v-30h-30
	v30H870z M270,450h-30v30h30V450z M270,510h-30v30h30V510z M330,660v30h30v-30H330z M990-120v-30h-30v30H990z M270,570h-30v30h30
	V570z M930-120v-30h-30v30H930z M270,660v30h30v-30H270z M1020-60h30v-30h-30V-60z M270,270h-30v30h30V270z M270,390h-30v30h30V390z
	 M510,660v30h30v-30H510z M270,210h-30v30h30V210z M450,660v30h30v-30H450z M720,210v-30h-30v30H720z M390,660v30h30v-30H390z
	 M270,330h-30v30h30V330z M810-120v-30h-30v30H810z M150-120v-30h-30v30H150z M660,630v30h30v-30H660z M720,660h30v-30h-30V660z
	 M660,150v-30h-30v30H660z M720,150v-30h-30v30H720z M1020,360h30v-30h-30V360z M1020,420h30v-30h-30V420z M780,150v-30h-30v30H780z
	 M720,600h30v-30h-30V600z M270-120v-30h-30v30H270z M600,630v30h30v-30H600z M420,630v30h30v-30H420z M210-120v-30h-30v30H210z
	 M1020,480h30v-30h-30V480z M480,150v-30h-30v30H480z M480,630v30h30v-30H480z M600,150v-30h-30v30H600z M750,210h30v-30h-30V210z
	 M540,630v30h30v-30H540z M540,150v-30h-30v30H540z M750,450h30v-30h-30V450z M510-120v-30h-30v30H510z M1020,180h30v-30h-30V180z
	 M450-120v-30h-30v30H450z M720,300h30v-30h-30V300z M750,180v-30h-30v30H750z M720,240h30v-30h-30V240z M750,570h30v-30h-30V570z
	 M750,390h30v-30h-30V390z M750,510h30v-30h-30V510z M1020,240h30v-30h-30V240z M750,270h30v-30h-30V270z M720,480h30v-30h-30V480z
	 M1020,300h30v-30h-30V300z M330-120v-30h-30v30H330z M720,420h30v-30h-30V420z M390-120v-30h-30v30H390z M720,540h30v-30h-30V540z
	 M720,360h30v-30h-30V360z M750,330h30v-30h-30V330z M360,1020h30v-30h-30V1020z M960-180h-30v30h30V-180z M1020-180h-30v30h30V-180
	z M900-180h-30v30h30V-180z M720-180h-30v30h30V-180z M1080-180h-30v30h30V-180z M480,360h-30v30h30V360z M840-180h-30v30h30V-180z
	 M510,390h-30v30h30V390z M1110-120v-30h-30v30H1110z M510,450h30v-30h-30V450z M1050-30h30v-30h-30V-30z M540,390v-30h-30v30H540z
	 M1050-120v30h30v-30H1050z M660-180h-30v30h30V-180z M780-180h-30v30h30V-180z M60-180H30v30h30V-180z M600-180h-30v30h30V-180z
	 M0-180h-30v30H0V-180z M120-180H90v30h30V-180z M-90-180v30h30v-30H-90z M-90-120v30h30v-30H-90z M180-180h-30v30h30V-180z
	 M480-180h-30v30h30V-180z M540-180h-30v30h30V-180z M420-180h-30v30h30V-180z M240-180h-30v30h30V-180z M-90-60v30h30v-30H-90z
	 M300-180h-30v30h30V-180z M420,360h-30v30h30V360z M570,510h30v-30h-30V510z M570,390h30v-30h-30V390z M480,420h-30v30h30V420z
	 M570,450h30v-30h-30V450z M510,480v30h30v-30H510z M450,480v30h30v-30H450z M1050,330h30v-30h-30V330z M1050,510h30v-30h-30V510z
	 M420,300h-30v30h30V300z M600,330v-30h-30v30H600z M480,330v-30h-30v30H480z M540,330v-30h-30v30H540z M1050,450h30v-30h-30V450z
	 M1050,390h30v-30h-30V390z M570,360v-30h-30v30H570z M540,480h30v-30h-30V480z M540,420h30v-30h-30V420z M1050,90h30V60h-30V90z
	 M1050,30h30V0h-30V30z M480,450v30h30v-30H480z M450,450h-30v30h30V450z M1050,210h30v-30h-30V210z M450,390h-30v30h30V390z
	 M1050,270h30v-30h-30V270z M1050,150h30v-30h-30V150z M510,360v-30h-30v30H510z M450,330h-30v30h30V330z M360-180h-30v30h30V-180z
	 M-90,0v30h30V0H-90z M1110,900v-30h-30v30H1110z M1110,1020v-30h-30v30H1110z M1110,720v-30h-30v30H1110z M1110,840v-30h-30v30
	H1110z M1020,1020h30v-30h-30V1020z M1110,780v-30h-30v30H1110z M720,1020h30v-30h-30V1020z M960,1020h30v-30h-30V1020z M600,1020
	h30v-30h-30V1020z M660,1020h30v-30h-30V1020z M840,1020h30v-30h-30V1020z M900,1020h30v-30h-30V1020z M780,1020h30v-30h-30V1020z
	 M1110,120V90h-30v30H1110z M1110,180v-30h-30v30H1110z M1110,60V30h-30v30H1110z M1110-60v-30h-30v30H1110z M1110,0v-30h-30V0H1110
	z M1110,240v-30h-30v30H1110z M1110,420v-30h-30v30H1110z M1110,540v-30h-30v30H1110z M1110,480v-30h-30v30H1110z M1110,300v-30h-30
	v30H1110z M1110,600v-30h-30v30H1110z M1110,660v-30h-30v30H1110z M60,840H30v30h30V840z M1110,960v-30h-30v30H1110z M-90,540v30h30
	v-30H-90z M-90,480v30h30v-30H-90z M-90,780v30h30v-30H-90z M-90,600v30h30v-30H-90z M-90,720v30h30v-30H-90z M-90,660v30h30v-30
	H-90z M-90,420v30h30v-30H-90z M-90,180v30h30v-30H-90z M-90,120v30h30v-30H-90z M-90,60v30h30V60H-90z M-90,360v30h30v-30H-90z
	 M-90,300v30h30v-30H-90z M-90,240v30h30v-30H-90z M300,1020h30v-30h-30V1020z M180,1020h30v-30h-30V1020z M240,1020h30v-30h-30
	V1020z M360,690v30h30v-30H360z M540,1020h30v-30h-30V1020z M420,1020h30v-30h-30V1020z M-90,840v30h30v-30H-90z M480,1020h30v-30
	h-30V1020z M120,1020h30v-30h-30V1020z M-90,900v30h30v-30H-90z M-60,1020h30v-30h-30V1020z M-90,960v30h30v-30H-90z M0,1020h30v-30
	H0V1020z M60,1020h30v-30H60V1020z M150,960v30h30v-30H150z M-30,960v30H0v-30H-30z M690,240v-30h-30v30H690z M630,240v-30h-30v30
	H630z M570,240v-30h-30v30H570z M660,360h30v-30h-30V360z M30,960v30h30v-30H30z M660,300h30v-30h-30V300z M-30,870h-30v30h30V870z
	 M660,420h30v-30h-30V420z M390,240v-30h-30v30H390z M330,210h-30v30h30V210z M450,240v-30h-30v30H450z M-30,930h-30v30h30V930z
	 M510,240v-30h-30v30H510z M660,600h30v-30h-30V600z M540,570v30h30v-30H540z M480,570v30h30v-30H480z M420,570v30h30v-30H420z
	 M270,960v30h30v-30H270z M90,960v30h30v-30H90z M330,960v30h30v-30H330z M360,570v30h30v-30H360z M690,270h30v-30h-30V270z
	 M660,540h30v-30h-30V540z M660,480h30v-30h-30V480z M600,570v30h30v-30H600z M210,960v30h30v-30H210z M-30,810h-30v30h30V810z
	 M330,510h-30v30h30V510z M-30,450h-30v30h30V450z M-30,510h-30v30h30V510z M690,570h30v-30h-30V570z M690,630h30v-30h-30V630z
	 M630,600v30h30v-30H630z M570,600v30h30v-30H570z M-30,390h-30v30h30V390z M690,510h30v-30h-30V510z M690,390h30v-30h-30V390z
	 M-30,270h-30v30h30V270z M690,330h30v-30h-30V330z M-30,330h-30v30h30V330z M690,450h30v-30h-30V450z M390,600v30h30v-30H390z
	 M330,450h-30v30h30V450z M-30,690h-30v30h30V690z M330,390h-30v30h30V390z M360,540h-30v30h30V540z M-30,750h-30v30h30V750z
	 M330,330h-30v30h30V330z M510,600v30h30v-30H510z M-30,570h-30v30h30V570z M450,600v30h30v-30H450z M330,570h-30v30h30V570z
	 M330,270h-30v30h30V270z M-30,630h-30v30h30V630z M330,600v30h30v-30H330z M390,540v30h30v-30H390z M1050,930h30v-30h-30V930z
	 M450,300v-30h-30v30H450z M630,300v-30h-30v30H630z M930,960v30h30v-30H930z M390,270h-30v30h30V270z M1050,870h30v-30h-30V870z
	 M510,300v-30h-30v30H510z M390,450h-30v30h30V450z M990,960v30h30v-30H990z M390,510h-30v30h30V510z M390,390h-30v30h30V390z
	 M390,330h-30v30h30V330z M1050,990h30v-30h-30V990z M570,300v-30h-30v30H570z M1050,630h30v-30h-30V630z M1050,690h30v-30h-30V690z
	 M480,510v30h30v-30H480z M420,510v30h30v-30H420z M420,480h-30v30h30V480z M600,360h30v-30h-30V360z M420,420h-30v30h30V420z
	 M600,480h30v-30h-30V480z M600,420h30v-30h-30V420z M1050,810h30v-30h-30V810z M540,510v30h30v-30H540z M1050,750h30v-30h-30V750z
	 M600,540h30v-30h-30V540z M600,270v-30h-30v30H600z M480,270v-30h-30v30H480z M420,270v-30h-30v30H420z M510,960v30h30v-30H510z
	 M570,960v30h30v-30H570z M630,960v30h30v-30H630z M540,270v-30h-30v30H540z M360,480h-30v30h30V480z M360,420h-30v30h30V420z
	 M390,960v30h30v-30H390z M360,360h-30v30h30V360z M450,960v30h30v-30H450z M360,300h-30v30h30V300z M360,240h-30v30h30V240z
	 M870,960v30h30v-30H870z M570,540v30h30v-30H570z M630,570h30v-30h-30V570z M810,960v30h30v-30H810z M510,540v30h30v-30H510z
	 M450,540v30h30v-30H450z M1050,570h30v-30h-30V570z M660,270v-30h-30v30H660z M690,960v30h30v-30H690z M630,390h30v-30h-30V390z
	 M630,330h30v-30h-30V330z M630,510h30v-30h-30V510z M630,450h30v-30h-30V450z M750,960v30h30v-30H750z M1110,360v-30h-30v30H1110z
	 M30,30H0v30h30V30z M900,600h30v-30h-30V600z M900,660h30v-30h-30V660z M900,540h30v-30h-30V540z M30,90H0v30h30V90z M900,720h30
	v-30h-30V720z M90-60v-30H60v30H90z M30,390H0v30h30V390z M30-30H0V0h30V-30z M900,300h30v-30h-30V300z M30-90H0v30h30V-90z
	 M900,780h30v-30h-30V780z M900,480h30v-30h-30V480z M900,420h30v-30h-30V420z M540,810v30h30v-30H540z M600,810v30h30v-30H600z
	 M30,330H0v30h30V330z M480,810v30h30v-30H480z M30,270H0v30h30V270z M420,810v30h30v-30H420z M840,810v30h30v-30H840z M900,840h30
	v-30h-30V840z M30,150H0v30h30V150z M780,810v30h30v-30H780z M30,210H0v30h30V210z M660,810v30h30v-30H660z M720,810v30h30v-30H720z
	 M900,360h30v-30h-30V360z M510-60v-30h-30v30H510z M390,0v-30h-30V0H390z M450-60v-30h-30v30H450z M450,0v-30h-30V0H450z M570,0
	v-30h-30V0H570z M510,0v-30h-30V0H510z M570-60v-30h-30v30H570z M210,0v-30h-30V0H210z M330,0v-30h-30V0H330z M630-60v-30h-30v30
	H630z M150,0v-30h-30V0H150z M390-60v-30h-30v30H390z M270,0v-30h-30V0H270z M210-60v-30h-30v30H210z M900,120h30V90h-30V120z
	 M900,60h30V30h-30V60z M900,240h30v-30h-30V240z M150-60v-30h-30v30H150z M900,180h30v-30h-30V180z M930,0v-30h-30V0H930z M690,0
	v-30h-30V0H690z M330-60v-30h-30v30H330z M870,0v-30h-30V0H870z M630,0v-30h-30V0H630z M750,0v-30h-30V0H750z M810,0v-30h-30V0H810z
	 M270-60v-30h-30v30H270z M660,30V0h-30v30H660z M210,900v30h30v-30H210z M270,900v30h30v-30H270z M480,30V0h-30v30H480z M540,30V0
	h-30v30H540z M360,810v30h30v-30H360z M90-30H60V0h30V-30z M330,900v30h30v-30H330z M240,30V0h-30v30H240z M90,900v30h30v-30H90z
	 M300,30V0h-30v30H300z M360,30V0h-30v30H360z M150,900v30h30v-30H150z M420,30V0h-30v30H420z M870,270h30v-30h-30V270z M870,210h30
	v-30h-30V210z M870,150h30v-30h-30V150z M180,30V0h-30v30H180z M510,900v30h30v-30H510z M570,900v30h30v-30H570z M870,330h30v-30
	h-30V330z M900,30V0h-30v30H900z M390,900v30h30v-30H390z M870,90h30V60h-30V90z M840,30V0h-30v30H840z M780,30V0h-30v30H780z
	 M450,900v30h30v-30H450z M720,30V0h-30v30H720z M600,30V0h-30v30H600z M120,720H90v30h30V720z M30,570H0v30h30V570z M120,660H90v30
	h30V660z M30,630H0v30h30V630z M120,780H90v30h30V780z M120,600H90v30h30V600z M30,450H0v30h30V450z M120,540H90v30h30V540z
	 M240,810v30h30v-30H240z M300,810v30h30v-30H300z M120,810v30h30v-30H120z M180,810v30h30v-30H180z M30,510H0v30h30V510z M120,0H90
	v30h30V0z M30,870H0v30h30V870z M120,120H90v30h30V120z M120,180H90v30h30V180z M120,240H90v30h30V240z M30,900v30h30v-30H30z
	 M120,60H90v30h30V60z M30,750H0v30h30V750z M30,810H0v30h30V810z M120,420H90v30h30V420z M120,480H90v30h30V480z M30,690H0v30h30
	V690z M120,300H90v30h30V300z M120,360H90v30h30V360z M930,390h30v-30h-30V390z M660-30v-30h-30v30H660z M780,870v30h30v-30H780z
	 M600-30v-30h-30v30H600z M540-30v-30h-30v30H540z M840,870v30h30v-30H840z M720-30v-30h-30v30H720z M660,870v30h30v-30H660z
	 M360-30v-30h-30v30H360z M300-30v-30h-30v30H300z M780-30v-30h-30v30H780z M420-30v-30h-30v30H420z M480-30v-30h-30v30H480z
	 M720,870v30h30v-30H720z M840-30v-30h-30v30H840z M930,210h30v-30h-30V210z M960,780h30v-30h-30V780z M930,150h30v-30h-30V150z
	 M930,270h30v-30h-30V270z M960,840h30v-30h-30V840z M930,330h30v-30h-30V330z M930,30h30V0h-30V30z M900-30v-30h-30v30H900z
	 M960-30v-30h-30v30H960z M930,90h30V60h-30V90z M900,870v30h30v-30H900z M600,870v30h30v-30H600z M960,900h30v-30h-30V900z M60,0
	H30v30h30V0z M240,870v30h30v-30H240z M60,480H30v30h30V480z M180,870v30h30v-30H180z M60,540H30v30h30V540z M60,360H30v30h30V360z
	 M60,420H30v30h30V420z M300,870v30h30v-30H300z M60,780H30v30h30V780z M60,870v30h30v-30H60z M60,720H30v30h30V720z M60,600H30v30
	h30V600z M120,870v30h30v-30H120z M60,660H30v30h30V660z M90,30H60v30h30V30z M60-60H30v30h30V-60z M120-30v-30H90v30H120z M480,870
	v30h30v-30H480z M960,720h30v-30h-30V720z M180-30v-30h-30v30H180z M60,300H30v30h30V300z M540,870v30h30v-30H540z M60,180H30v30h30
	V180z M360,870v30h30v-30H360z M60,240H30v30h30V240z M60,60H30v30h30V60z M240-30v-30h-30v30H240z M60,120H30v30h30V120z M420,870
	v30h30v-30H420z M90,570H60v30h30V570z M90,690H60v30h30V690z M960,0h30v-30h-30V0z M90,630H60v30h30V630z M90,810H60v30h30V810z
	 M990-60v-30h-30v30H990z M90,750H60v30h30V750z M960,120h30V90h-30V120z M270,840v30h30v-30H270z M210,840v30h30v-30H210z M960,60
	h30V30h-30V60z M330,840v30h30v-30H330z M90,840v30h30v-30H90z M150,840v30h30v-30H150z M750-60v-30h-30v30H750z M90,270H60v30h30
	V270z M90,210H60v30h30V210z M90,150H60v30h30V150z M930-60v-30h-30v30H930z M90,90H60v30h30V90z M690-60v-30h-30v30H690z M90,450
	H60v30h30V450z M870,390h30v-30h-30V390z M90,510H60v30h30V510z M90,330H60v30h30V330z M90,390H60v30h30V390z M810-60v-30h-30v30
	H810z M870-60v-30h-30v30H870z M930,750h30v-30h-30V750z M930,690h30v-30h-30V690z M930,810h30v-30h-30V810z M960,540h30v-30h-30
	V540z M930,870h30v-30h-30V870z M960,480h30v-30h-30V480z M930,450h30v-30h-30V450z M930,630h30v-30h-30V630z M960,660h30v-30h-30
	V660z M960,180h30v-30h-30V180z M930,510h30v-30h-30V510z M930,570h30v-30h-30V570z M960,600h30v-30h-30V600z M870,840v30h30v-30
	H870z M960,300h30v-30h-30V300z M510,840v30h30v-30H510z M570,840v30h30v-30H570z M960,240h30v-30h-30V240z M450,840v30h30v-30H450z
	 M390,840v30h30v-30H390z M960,420h30v-30h-30V420z M810,840v30h30v-30H810z M750,840v30h30v-30H750z M960,360h30v-30h-30V360z
	 M690,840v30h30v-30H690z M630,840v30h30v-30H630z M210,210h-30v30h30V210z M810,570h30v-30h-30V570z M810,630h30v-30h-30V630z
	 M0,420h-30v30H0V420z M810,690h30v-30h-30V690z M750,720v30h30v-30H750z M0,480h-30v30H0V480z M810,750h30v-30h-30V750z M810,510
	h30v-30h-30V510z M0,300h-30v30H0V300z M810,330h30v-30h-30V330z M810,390h30v-30h-30V390z M810,450h30v-30h-30V450z M0,360h-30v30
	H0V360z M390,720v30h30v-30H390z M0,720h-30v30H0V720z M330,720v30h30v-30H330z M0,540h-30v30H0V540z M270,720v30h30v-30H270z
	 M0,780h-30v30H0V780z M450,720v30h30v-30H450z M810,270h30v-30h-30V270z M0,600h-30v30H0V600z M630,720v30h30v-30H630z M690,720v30
	h30v-30H690z M0,660h-30v30H0V660z M570,720v30h30v-30H570z M510,720v30h30v-30H510z M0-120h-30v30H0V-120z M210,720v30h30v-30H210z
	 M240,90V60h-30v30H240z M300,90V60h-30v30H300z M0-60h-30v30H0V-60z M360,90V60h-30v30H360z M180,60h-30v30h30V60z M180,120h-30v30
	h30V120z M180,240h-30v30h30V240z M180,300h-30v30h30V300z M120-90v-30H90v30H120z M60-90v-30H30v30H60z M180,180h-30v30h30V180z
	 M420,90V60h-30v30H420z M0,240h-30v30H0V240z M0,180h-30v30H0V180z M840,90V60h-30v30H840z M780,90V60h-30v30H780z M480,90V60h-30
	v30H480z M810,210h30v-30h-30V210z M810,150h30v-30h-30V150z M0,120h-30v30H0V120z M540,90V60h-30v30H540z M0,0h-30v30H0V0z M720,90
	V60h-30v30H720z M600,90V60h-30v30H600z M0,60h-30v30H0V60z M660,90V60h-30v30H660z M210,150h-30v30h30V150z M780,300h30v-30h-30
	V300z M780,420h30v-30h-30V420z M780,540h30v-30h-30V540z M780,360h30v-30h-30V360z M780,480h30v-30h-30V480z M660,930v30h30v-30
	H660z M600,930v30h30v-30H600z M480,930v30h30v-30H480z M810,120V90h-30v30H810z M750,120V90h-30v30H750z M540,930v30h30v-30H540z
	 M780,240h30v-30h-30V240z M780,180h30v-30h-30V180z M660,690v30h30v-30H660z M900,930v30h30v-30H900z M720,930v30h30v-30H720z
	 M600,690v30h30v-30H600z M690,120V90h-30v30H690z M960,930v30h30v-30H960z M480,690v30h30v-30H480z M540,690v30h30v-30H540z
	 M780,930v30h30v-30H780z M780,660h30v-30h-30V660z M780,600h30v-30h-30V600z M840,930v30h30v-30H840z M720,690v30h30v-30H720z
	 M780,720h30v-30h-30V720z M210,390h-30v30h30V390z M210,330h-30v30h30V330z M210,690h-30v30h30V690z M60,930v30h30v-30H60z M0,930
	v30h30v-30H0z M210,270h-30v30h30V270z M420,690v30h30v-30H420z M210,510h-30v30h30V510z M210,450h-30v30h30V450z M210,630h-30v30
	h30V630z M0,840h-30v30H0V840z M210,570h-30v30h30V570z M120,930v30h30v-30H120z M0,900h-30v30H0V900z M270,120V90h-30v30H270z
	 M510,120V90h-30v30H510z M450,120V90h-30v30H450z M360,930v30h30v-30H360z M180-90v-30h-30v30H180z M630,120V90h-30v30H630z
	 M570,120V90h-30v30H570z M300,930v30h30v-30H300z M210,90h-30v30h30V90z M180,930v30h30v-30H180z M420,930v30h30v-30H420z M330,120
	V90h-30v30H330z M390,120V90h-30v30H390z M240,930v30h30v-30H240z M270,60V30h-30v30H270z M150,450h-30v30h30V450z M150,390h-30v30
	h30V390z M150,510h-30v30h30V510z M990,570h30v-30h-30V570z M990,510h30v-30h-30V510z M150,330h-30v30h30V330z M990,630h30v-30h-30
	V630z M150,570h-30v30h30V570z M990,690h30v-30h-30V690z M150,750h-30v30h30V750z M150,690h-30v30h30V690z M150,630h-30v30h30V630z
	 M150,270h-30v30h30V270z M210,60V30h-30v30H210z M180,360h-30v30h30V360z M150,780v30h30v-30H150z M330,60V30h-30v30H330z M630,900
	v30h30v-30H630z M990,210h30v-30h-30V210z M390,60V30h-30v30H390z M150,210h-30v30h30V210z M150,150h-30v30h30V150z M990,450h30v-30
	h-30V450z M990,390h30v-30h-30V390z M150,30h-30v30h30V30z M150,90h-30v30h30V90z M990,330h30v-30h-30V330z M450,780v30h30v-30H450z
	 M810,900v30h30v-30H810z M870,690h30v-30h-30V690z M870,750h30v-30h-30V750z M990,750h30v-30h-30V750z M810,780v30h30v-30H810z
	 M870,900v30h30v-30H870z M870,630h30v-30h-30V630z M870,510h30v-30h-30V510z M690,900v30h30v-30H690z M870,450h30v-30h-30V450z
	 M870,570h30v-30h-30V570z M750,780v30h30v-30H750z M750,900v30h30v-30H750z M870,810h30v-30h-30V810z M330,780v30h30v-30H330z
	 M990,870h30v-30h-30V870z M690,780v30h30v-30H690z M990,810h30v-30h-30V810z M270,780v30h30v-30H270z M210,780v30h30v-30H210z
	 M390,780v30h30v-30H390z M450,60V30h-30v30H450z M570,780v30h30v-30H570z M930,900v30h30v-30H930z M630,780v30h30v-30H630z
	 M510,780v30h30v-30H510z M990,930h30v-30h-30V930z M990,270h30v-30h-30V270z M480,750v30h30v-30H480z M540,750v30h30v-30H540z
	 M540-90v-30h-30v30H540z M360,750v30h30v-30H360z M420,750v30h30v-30H420z M480-90v-30h-30v30H480z M600-90v-30h-30v30H600z
	 M840,780h30v-30h-30V780z M720-90v-30h-30v30H720z M720,750v30h30v-30H720z M660-90v-30h-30v30H660z M600,750v30h30v-30H600z
	 M660,750v30h30v-30H660z M780,750v30h30v-30H780z M180,540h-30v30h30V540z M300-90v-30h-30v30H300z M180,600h-30v30h30V600z
	 M180,480h-30v30h30V480z M180,420h-30v30h30V420z M240-90v-30h-30v30H240z M240,750v30h30v-30H240z M180,660h-30v30h30V660z
	 M300,750v30h30v-30H300z M180,750v30h30v-30H180z M420-90v-30h-30v30H420z M180,720h-30v30h30V720z M360-90v-30h-30v30H360z
	 M990,150h30v-30h-30V150z M870,60V30h-30v30H870z M840,720h30v-30h-30V720z M990-30h30v-30h-30V-30z M840,180h30v-30h-30V180z
	 M840,120h30V90h-30V120z M990,30h30V0h-30V30z M510,60V30h-30v30H510z M570,60V30h-30v30H570z M630,60V30h-30v30H630z M1020-90v-30
	h-30v30H1020z M750,60V30h-30v30H750z M990,90h30V60h-30V90z M690,60V30h-30v30H690z M810,60V30h-30v30H810z M840-90v-30h-30v30H840
	z M840,600h30v-30h-30V600z M840,540h30v-30h-30V540z M840,480h30v-30h-30V480z M840,660h30v-30h-30V660z M780-90v-30h-30v30H780z
	 M840,300h30v-30h-30V300z M840,240h30v-30h-30V240z M960-90v-30h-30v30H960z M840,420h30v-30h-30V420z M900-90v-30h-30v30H900z
	 M840,360h30v-30h-30V360z"/>
<g>
	<path class="white" d="M270.2,344.2h679.7c33.2,0,60.2-26.9,60.2-60.2c0-33.2-26.9-60.2-60.2-60.2H270.2
		c-33.2,0-60.2,26.9-60.2,60.2C210,317.2,236.9,344.2,270.2,344.2z M949.8,459.8H270.2c-33.2,0-60.2,26.9-60.2,60.2
		c0,33.2,26.9,60.2,60.2,60.2h679.7c33.2,0,60.2-26.9,60.2-60.2C1010,486.8,983.1,459.8,949.8,459.8z M949.8,695.8H270.2
		c-33.2,0-60.2,26.9-60.2,60.2c0,33.2,26.9,60.2,60.2,60.2h679.7c33.2,0,60.2-26.9,60.2-60.2C1010,722.8,983.1,695.8,949.8,695.8z"
		/>
	<path class="st1" d="M269.2,343.2h679.7c33.2,0,60.2-26.9,60.2-60.2c0-33.2-26.9-60.2-60.2-60.2H269.2c-33.2,0-60.2,26.9-60.2,60.2
		C209,316.3,235.9,343.2,269.2,343.2z M948.8,458.8H269.2c-33.2,0-60.2,26.9-60.2,60.2c0,33.2,26.9,60.2,60.2,60.2h679.7
		c33.2,0,60.2-26.9,60.2-60.2C1009,485.8,982.1,458.8,948.8,458.8z M948.8,694.8H269.2c-33.2,0-60.2,26.9-60.2,60.2
		c0,33.2,26.9,60.2,60.2,60.2h679.7c33.2,0,60.2-26.9,60.2-60.2C1009,721.8,982.1,694.8,948.8,694.8z"/>
	<path class="st2" d="M268.2,342.2h679.7c33.2,0,60.2-26.9,60.2-60.2c0-33.2-26.9-60.2-60.2-60.2H268.2c-33.2,0-60.2,26.9-60.2,60.2
		C208,315.3,235,342.2,268.2,342.2z M947.8,457.8H268.2c-33.2,0-60.2,26.9-60.2,60.2c0,33.2,26.9,60.2,60.2,60.2h679.7
		c33.2,0,60.2-26.9,60.2-60.2C1008,484.8,981.1,457.8,947.8,457.8z M947.8,693.8H268.2c-33.2,0-60.2,26.9-60.2,60.2
		c0,33.2,26.9,60.2,60.2,60.2h679.7c33.2,0,60.2-26.9,60.2-60.2C1008,720.8,981.1,693.8,947.8,693.8z"/>
	<path class="st3" d="M267.2,341.2h679.7c33.2,0,60.2-26.9,60.2-60.2c0-33.2-26.9-60.2-60.2-60.2H267.2c-33.2,0-60.2,26.9-60.2,60.2
		C207,314.3,234,341.2,267.2,341.2z M946.9,456.9H267.2c-33.2,0-60.2,26.9-60.2,60.2c0,33.2,26.9,60.2,60.2,60.2h679.7
		c33.2,0,60.2-26.9,60.2-60.2C1007,483.8,980.1,456.9,946.9,456.9z M946.9,692.8H267.2c-33.2,0-60.2,26.9-60.2,60.2
		c0,33.2,26.9,60.2,60.2,60.2h679.7c33.2,0,60.2-26.9,60.2-60.2C1007,719.8,980.1,692.8,946.9,692.8z"/>
	<path class="st4" d="M266.2,340.2h679.7c33.2,0,60.2-26.9,60.2-60.2c0-33.2-26.9-60.2-60.2-60.2H266.2c-33.2,0-60.2,26.9-60.2,60.2
		C206,313.3,233,340.2,266.2,340.2z M945.9,455.9H266.2c-33.2,0-60.2,26.9-60.2,60.2c0,33.2,26.9,60.2,60.2,60.2h679.7
		c33.2,0,60.2-26.9,60.2-60.2C1006,482.8,979.1,455.9,945.9,455.9z M945.9,691.9H266.2c-33.2,0-60.2,26.9-60.2,60.2
		s26.9,60.2,60.2,60.2h679.7c33.2,0,60.2-26.9,60.2-60.2S979.1,691.9,945.9,691.9z"/>
	<path class="st5" d="M265.2,339.2h679.7c33.2,0,60.2-26.9,60.2-60.2c0-33.2-26.9-60.2-60.2-60.2H265.2c-33.2,0-60.2,26.9-60.2,60.2
		C205,312.3,232,339.2,265.2,339.2z M944.9,454.9H265.2c-33.2,0-60.2,26.9-60.2,60.2c0,33.2,26.9,60.2,60.2,60.2h679.7
		c33.2,0,60.2-26.9,60.2-60.2C1005,481.8,978.1,454.9,944.9,454.9z M944.9,690.9H265.2c-33.2,0-60.2,26.9-60.2,60.2
		c0,33.2,26.9,60.2,60.2,60.2h679.7c33.2,0,60.2-26.9,60.2-60.2C1005,717.8,978.1,690.9,944.9,690.9z"/>
	<path class="st6" d="M264.2,338.2h679.7c33.2,0,60.2-26.9,60.2-60.2c0-33.2-26.9-60.2-60.2-60.2H264.2c-33.2,0-60.2,26.9-60.2,60.2
		C204.1,311.3,231,338.2,264.2,338.2z M943.9,453.9H264.2c-33.2,0-60.2,26.9-60.2,60.2c0,33.2,26.9,60.2,60.2,60.2h679.7
		c33.2,0,60.2-26.9,60.2-60.2C1004.1,480.8,977.1,453.9,943.9,453.9z M943.9,689.9H264.2c-33.2,0-60.2,26.9-60.2,60.2
		c0,33.2,26.9,60.2,60.2,60.2h679.7c33.2,0,60.2-26.9,60.2-60.2C1004.1,716.8,977.1,689.9,943.9,689.9z"/>
	<path class="st7" d="M263.2,337.3h679.7c33.2,0,60.2-26.9,60.2-60.2c0-33.2-26.9-60.2-60.2-60.2H263.2c-33.2,0-60.2,26.9-60.2,60.2
		C203.1,310.3,230,337.3,263.2,337.3z M942.9,452.9H263.2c-33.2,0-60.2,26.9-60.2,60.2c0,33.2,26.9,60.2,60.2,60.2h679.7
		c33.2,0,60.2-26.9,60.2-60.2C1003.1,479.8,976.1,452.9,942.9,452.9z M942.9,688.9H263.2c-33.2,0-60.2,26.9-60.2,60.2
		c0,33.2,26.9,60.2,60.2,60.2h679.7c33.2,0,60.2-26.9,60.2-60.2C1003.1,715.8,976.1,688.9,942.9,688.9z"/>
	<path class="st8" d="M262.3,336.3h679.7c33.2,0,60.2-26.9,60.2-60.2c0-33.2-26.9-60.2-60.2-60.2H262.3c-33.2,0-60.2,26.9-60.2,60.2
		C202.1,309.3,229,336.3,262.3,336.3z M941.9,451.9H262.3c-33.2,0-60.2,26.9-60.2,60.2c0,33.2,26.9,60.2,60.2,60.2h679.7
		c33.2,0,60.2-26.9,60.2-60.2C1002.1,478.8,975.1,451.9,941.9,451.9z M941.9,687.9H262.3c-33.2,0-60.2,26.9-60.2,60.2
		c0,33.2,26.9,60.2,60.2,60.2h679.7c33.2,0,60.2-26.9,60.2-60.2C1002.1,714.8,975.1,687.9,941.9,687.9z"/>
	<path class="st9" d="M261.3,335.3h679.7c33.2,0,60.2-26.9,60.2-60.2c0-33.2-26.9-60.2-60.2-60.2H261.3c-33.2,0-60.2,26.9-60.2,60.2
		C201.1,308.3,228,335.3,261.3,335.3z M940.9,450.9H261.3c-33.2,0-60.2,26.9-60.2,60.2c0,33.2,26.9,60.2,60.2,60.2h679.7
		c33.2,0,60.2-26.9,60.2-60.2C1001.1,477.9,974.1,450.9,940.9,450.9z M940.9,686.9H261.3c-33.2,0-60.2,26.9-60.2,60.2
		s26.9,60.2,60.2,60.2h679.7c33.2,0,60.2-26.9,60.2-60.2S974.1,686.9,940.9,686.9z"/>
	<path class="st10" d="M260.3,334.3h679.7c33.2,0,60.2-26.9,60.2-60.2c0-33.2-26.9-60.2-60.2-60.2H260.3
		c-33.2,0-60.2,26.9-60.2,60.2C200.1,307.3,227,334.3,260.3,334.3z M939.9,449.9H260.3c-33.2,0-60.2,26.9-60.2,60.2
		c0,33.2,26.9,60.2,60.2,60.2h679.7c33.2,0,60.2-26.9,60.2-60.2C1000.1,476.9,973.2,449.9,939.9,449.9z M939.9,685.9H260.3
		c-33.2,0-60.2,26.9-60.2,60.2c0,33.2,26.9,60.2,60.2,60.2h679.7c33.2,0,60.2-26.9,60.2-60.2C1000.1,712.9,973.2,685.9,939.9,685.9z
		"/>
	<path class="st11" d="M259.3,333.3h679.7c33.2,0,60.2-26.9,60.2-60.2c0-33.2-26.9-60.2-60.2-60.2H259.3
		c-33.2,0-60.2,26.9-60.2,60.2C199.1,306.4,226,333.3,259.3,333.3z M938.9,448.9H259.3c-33.2,0-60.2,26.9-60.2,60.2
		c0,33.2,26.9,60.2,60.2,60.2h679.7c33.2,0,60.2-26.9,60.2-60.2C999.1,475.9,972.2,448.9,938.9,448.9z M938.9,684.9H259.3
		c-33.2,0-60.2,26.9-60.2,60.2c0,33.2,26.9,60.2,60.2,60.2h679.7c33.2,0,60.2-26.9,60.2-60.2C999.1,711.9,972.2,684.9,938.9,684.9z"
		/>
	<path class="st12" d="M258.3,332.3h679.7c33.2,0,60.2-26.9,60.2-60.2c0-33.2-26.9-60.2-60.2-60.2H258.3
		c-33.2,0-60.2,26.9-60.2,60.2C198.1,305.4,225.1,332.3,258.3,332.3z M937.9,447.9H258.3c-33.2,0-60.2,26.9-60.2,60.2
		c0,33.2,26.9,60.2,60.2,60.2h679.7c33.2,0,60.2-26.9,60.2-60.2C998.1,474.9,971.2,447.9,937.9,447.9z M937.9,683.9H258.3
		c-33.2,0-60.2,26.9-60.2,60.2c0,33.2,26.9,60.2,60.2,60.2h679.7c33.2,0,60.2-26.9,60.2-60.2C998.1,710.9,971.2,683.9,937.9,683.9z"
		/>
	<path class="st13" d="M257.3,331.3H937c33.2,0,60.2-26.9,60.2-60.2c0-33.2-26.9-60.2-60.2-60.2H257.3c-33.2,0-60.2,26.9-60.2,60.2
		C197.1,304.4,224.1,331.3,257.3,331.3z M937,447H257.3c-33.2,0-60.2,26.9-60.2,60.2c0,33.2,26.9,60.2,60.2,60.2H937
		c33.2,0,60.2-26.9,60.2-60.2C997.1,473.9,970.2,447,937,447z M937,682.9H257.3c-33.2,0-60.2,26.9-60.2,60.2
		c0,33.2,26.9,60.2,60.2,60.2H937c33.2,0,60.2-26.9,60.2-60.2C997.1,709.9,970.2,682.9,937,682.9z"/>
	<path class="st14" d="M256.3,330.3H936c33.2,0,60.2-26.9,60.2-60.2c0-33.2-26.9-60.2-60.2-60.2H256.3c-33.2,0-60.2,26.9-60.2,60.2
		C196.1,303.4,223.1,330.3,256.3,330.3z M936,446H256.3c-33.2,0-60.2,26.9-60.2,60.2c0,33.2,26.9,60.2,60.2,60.2H936
		c33.2,0,60.2-26.9,60.2-60.2C996.1,472.9,969.2,446,936,446z M936,681.9H256.3c-33.2,0-60.2,26.9-60.2,60.2s26.9,60.2,60.2,60.2
		H936c33.2,0,60.2-26.9,60.2-60.2S969.2,681.9,936,681.9z"/>
	<path class="st15" d="M255.3,329.3H935c33.2,0,60.2-26.9,60.2-60.2c0-33.2-26.9-60.2-60.2-60.2H255.3c-33.2,0-60.2,26.9-60.2,60.2
		C195.1,302.4,222.1,329.3,255.3,329.3z M935,445H255.3c-33.2,0-60.2,26.9-60.2,60.2c0,33.2,26.9,60.2,60.2,60.2H935
		c33.2,0,60.2-26.9,60.2-60.2C995.1,471.9,968.2,445,935,445z M935,681H255.3c-33.2,0-60.2,26.9-60.2,60.2
		c0,33.2,26.9,60.2,60.2,60.2H935c33.2,0,60.2-26.9,60.2-60.2C995.1,707.9,968.2,681,935,681z"/>
	<path class="st16" d="M254.3,328.3H934c33.2,0,60.2-26.9,60.2-60.2c0-33.2-26.9-60.2-60.2-60.2H254.3c-33.2,0-60.2,26.9-60.2,60.2
		C194.2,301.4,221.1,328.3,254.3,328.3z M934,444H254.3c-33.2,0-60.2,26.9-60.2,60.2c0,33.2,26.9,60.2,60.2,60.2H934
		c33.2,0,60.2-26.9,60.2-60.2C994.2,470.9,967.2,444,934,444z M934,680H254.3c-33.2,0-60.2,26.9-60.2,60.2
		c0,33.2,26.9,60.2,60.2,60.2H934c33.2,0,60.2-26.9,60.2-60.2C994.2,706.9,967.2,680,934,680z"/>
	<path class="st17" d="M253.3,327.4H933c33.2,0,60.2-26.9,60.2-60.2c0-33.2-26.9-60.2-60.2-60.2H253.3c-33.2,0-60.2,26.9-60.2,60.2
		C193.2,300.4,220.1,327.4,253.3,327.4z M933,443H253.3c-33.2,0-60.2,26.9-60.2,60.2c0,33.2,26.9,60.2,60.2,60.2H933
		c33.2,0,60.2-26.9,60.2-60.2C993.2,469.9,966.2,443,933,443z M933,679H253.3c-33.2,0-60.2,26.9-60.2,60.2
		c0,33.2,26.9,60.2,60.2,60.2H933c33.2,0,60.2-26.9,60.2-60.2C993.2,705.9,966.2,679,933,679z"/>
	<path class="st18" d="M252.4,326.4H932c33.2,0,60.2-26.9,60.2-60.2c0-33.2-26.9-60.2-60.2-60.2H252.4c-33.2,0-60.2,26.9-60.2,60.2
		C192.2,299.4,219.1,326.4,252.4,326.4z M932,442H252.4c-33.2,0-60.2,26.9-60.2,60.2c0,33.2,26.9,60.2,60.2,60.2H932
		c33.2,0,60.2-26.9,60.2-60.2C992.2,468.9,965.2,442,932,442z M932,678H252.4c-33.2,0-60.2,26.9-60.2,60.2
		c0,33.2,26.9,60.2,60.2,60.2H932c33.2,0,60.2-26.9,60.2-60.2C992.2,704.9,965.2,678,932,678z"/>
	<path class="st19" d="M251.4,325.4H931c33.2,0,60.2-26.9,60.2-60.2c0-33.2-26.9-60.2-60.2-60.2H251.4c-33.2,0-60.2,26.9-60.2,60.2
		C191.2,298.4,218.1,325.4,251.4,325.4z M931,441H251.4c-33.2,0-60.2,26.9-60.2,60.2c0,33.2,26.9,60.2,60.2,60.2H931
		c33.2,0,60.2-26.9,60.2-60.2C991.2,468,964.2,441,931,441z M931,677H251.4c-33.2,0-60.2,26.9-60.2,60.2s26.9,60.2,60.2,60.2H931
		c33.2,0,60.2-26.9,60.2-60.2S964.2,677,931,677z"/>
	<path class="st20" d="M250.4,324.4H930c33.2,0,60.2-26.9,60.2-60.2c0-33.2-26.9-60.2-60.2-60.2H250.4c-33.2,0-60.2,26.9-60.2,60.2
		C190.2,297.4,217.1,324.4,250.4,324.4z M930,440H250.4c-33.2,0-60.2,26.9-60.2,60.2c0,33.2,26.9,60.2,60.2,60.2H930
		c33.2,0,60.2-26.9,60.2-60.2C990.2,467,963.3,440,930,440z M930,676H250.4c-33.2,0-60.2,26.9-60.2,60.2c0,33.2,26.9,60.2,60.2,60.2
		H930c33.2,0,60.2-26.9,60.2-60.2C990.2,702.9,963.3,676,930,676z"/>
	<path class="st21" d="M249.4,323.4H929c33.2,0,60.2-26.9,60.2-60.2c0-33.2-26.9-60.2-60.2-60.2H249.4c-33.2,0-60.2,26.9-60.2,60.2
		C189.2,296.5,216.1,323.4,249.4,323.4z M929,439H249.4c-33.2,0-60.2,26.9-60.2,60.2c0,33.2,26.9,60.2,60.2,60.2H929
		c33.2,0,60.2-26.9,60.2-60.2C989.2,466,962.3,439,929,439z M929,675H249.4c-33.2,0-60.2,26.9-60.2,60.2c0,33.2,26.9,60.2,60.2,60.2
		H929c33.2,0,60.2-26.9,60.2-60.2C989.2,702,962.3,675,929,675z"/>
	<path class="st22" d="M248.4,322.4H928c33.2,0,60.2-26.9,60.2-60.2c0-33.2-26.9-60.2-60.2-60.2H248.4c-33.2,0-60.2,26.9-60.2,60.2
		C188.2,295.5,215.2,322.4,248.4,322.4z M928,438H248.4c-33.2,0-60.2,26.9-60.2,60.2c0,33.2,26.9,60.2,60.2,60.2H928
		c33.2,0,60.2-26.9,60.2-60.2C988.2,465,961.3,438,928,438z M928,674H248.4c-33.2,0-60.2,26.9-60.2,60.2c0,33.2,26.9,60.2,60.2,60.2
		H928c33.2,0,60.2-26.9,60.2-60.2C988.2,701,961.3,674,928,674z"/>
	<path class="st23" d="M247.4,321.4h679.7c33.2,0,60.2-26.9,60.2-60.2c0-33.2-26.9-60.2-60.2-60.2H247.4
		c-33.2,0-60.2,26.9-60.2,60.2C187.2,294.5,214.2,321.4,247.4,321.4z M927.1,437.1H247.4c-33.2,0-60.2,26.9-60.2,60.2
		c0,33.2,26.9,60.2,60.2,60.2h679.7c33.2,0,60.2-26.9,60.2-60.2C987.2,464,960.3,437.1,927.1,437.1z M927.1,673H247.4
		c-33.2,0-60.2,26.9-60.2,60.2c0,33.2,26.9,60.2,60.2,60.2h679.7c33.2,0,60.2-26.9,60.2-60.2C987.2,700,960.3,673,927.1,673z"/>
	<path class="st24" d="M246.4,320.4h679.7c33.2,0,60.2-26.9,60.2-60.2c0-33.2-26.9-60.2-60.2-60.2H246.4
		c-33.2,0-60.2,26.9-60.2,60.2C186.2,293.5,213.2,320.4,246.4,320.4z M926.1,436.1H246.4c-33.2,0-60.2,26.9-60.2,60.2
		c0,33.2,26.9,60.2,60.2,60.2h679.7c33.2,0,60.2-26.9,60.2-60.2C986.2,463,959.3,436.1,926.1,436.1z M926.1,672H246.4
		c-33.2,0-60.2,26.9-60.2,60.2c0,33.2,26.9,60.2,60.2,60.2h679.7c33.2,0,60.2-26.9,60.2-60.2C986.2,699,959.3,672,926.1,672z"/>
	<path class="st25" d="M245.4,319.4h679.7c33.2,0,60.2-26.9,60.2-60.2c0-33.2-26.9-60.2-60.2-60.2H245.4
		c-33.2,0-60.2,26.9-60.2,60.2C185.2,292.5,212.2,319.4,245.4,319.4z M925.1,435.1H245.4c-33.2,0-60.2,26.9-60.2,60.2
		c0,33.2,26.9,60.2,60.2,60.2h679.7c33.2,0,60.2-26.9,60.2-60.2C985.2,462,958.3,435.1,925.1,435.1z M925.1,671.1H245.4
		c-33.2,0-60.2,26.9-60.2,60.2c0,33.2,26.9,60.2,60.2,60.2h679.7c33.2,0,60.2-26.9,60.2-60.2C985.2,698,958.3,671.1,925.1,671.1z"/>
	<path class="st26" d="M244.4,318.4h679.7c33.2,0,60.2-26.9,60.2-60.2c0-33.2-26.9-60.2-60.2-60.2H244.4
		c-33.2,0-60.2,26.9-60.2,60.2C184.3,291.5,211.2,318.4,244.4,318.4z M924.1,434.1H244.4c-33.2,0-60.2,26.9-60.2,60.2
		c0,33.2,26.9,60.2,60.2,60.2h679.7c33.2,0,60.2-26.9,60.2-60.2C984.3,461,957.3,434.1,924.1,434.1z M924.1,670.1H244.4
		c-33.2,0-60.2,26.9-60.2,60.2c0,33.2,26.9,60.2,60.2,60.2h679.7c33.2,0,60.2-26.9,60.2-60.2C984.3,697,957.3,670.1,924.1,670.1z"/>
	<path class="st27" d="M243.4,317.5h679.7c33.2,0,60.2-26.9,60.2-60.2c0-33.2-26.9-60.2-60.2-60.2H243.4
		c-33.2,0-60.2,26.9-60.2,60.2C183.3,290.5,210.2,317.5,243.4,317.5z M923.1,433.1H243.4c-33.2,0-60.2,26.9-60.2,60.2
		c0,33.2,26.9,60.2,60.2,60.2h679.7c33.2,0,60.2-26.9,60.2-60.2C983.3,460,956.3,433.1,923.1,433.1z M923.1,669.1H243.4
		c-33.2,0-60.2,26.9-60.2,60.2c0,33.2,26.9,60.2,60.2,60.2h679.7c33.2,0,60.2-26.9,60.2-60.2C983.3,696,956.3,669.1,923.1,669.1z"/>
	<path class="st28" d="M242.4,316.5h679.7c33.2,0,60.2-26.9,60.2-60.2c0-33.2-26.9-60.2-60.2-60.2H242.4
		c-33.2,0-60.2,26.9-60.2,60.2C182.3,289.5,209.2,316.5,242.4,316.5z M922.1,432.1H242.4c-33.2,0-60.2,26.9-60.2,60.2
		c0,33.2,26.9,60.2,60.2,60.2h679.7c33.2,0,60.2-26.9,60.2-60.2C982.3,459,955.3,432.1,922.1,432.1z M922.1,668.1H242.4
		c-33.2,0-60.2,26.9-60.2,60.2c0,33.2,26.9,60.2,60.2,60.2h679.7c33.2,0,60.2-26.9,60.2-60.2C982.3,695,955.3,668.1,922.1,668.1z"/>
	<path class="st29" d="M241.5,315.5h679.7c33.2,0,60.2-26.9,60.2-60.2c0-33.2-26.9-60.2-60.2-60.2H241.5
		c-33.2,0-60.2,26.9-60.2,60.2C181.3,288.5,208.2,315.5,241.5,315.5z M921.1,431.1H241.5c-33.2,0-60.2,26.9-60.2,60.2
		c0,33.2,26.9,60.2,60.2,60.2h679.7c33.2,0,60.2-26.9,60.2-60.2C981.3,458.1,954.3,431.1,921.1,431.1z M921.1,667.1H241.5
		c-33.2,0-60.2,26.9-60.2,60.2c0,33.2,26.9,60.2,60.2,60.2h679.7c33.2,0,60.2-26.9,60.2-60.2C981.3,694,954.3,667.1,921.1,667.1z"/>
	<path class="st30" d="M240.5,314.5h679.7c33.2,0,60.2-26.9,60.2-60.2c0-33.2-26.9-60.2-60.2-60.2H240.5
		c-33.2,0-60.2,26.9-60.2,60.2C180.3,287.5,207.2,314.5,240.5,314.5z M920.1,430.1H240.5c-33.2,0-60.2,26.9-60.2,60.2
		c0,33.2,26.9,60.2,60.2,60.2h679.7c33.2,0,60.2-26.9,60.2-60.2C980.3,457.1,953.4,430.1,920.1,430.1z M920.1,666.1H240.5
		c-33.2,0-60.2,26.9-60.2,60.2c0,33.2,26.9,60.2,60.2,60.2h679.7c33.2,0,60.2-26.9,60.2-60.2C980.3,693,953.4,666.1,920.1,666.1z"/>
	<path class="st31" d="M239.5,313.5h679.7c33.2,0,60.2-26.9,60.2-60.2c0-33.2-26.9-60.2-60.2-60.2H239.5
		c-33.2,0-60.2,26.9-60.2,60.2C179.3,286.6,206.2,313.5,239.5,313.5z M919.1,429.1H239.5c-33.2,0-60.2,26.9-60.2,60.2
		c0,33.2,26.9,60.2,60.2,60.2h679.7c33.2,0,60.2-26.9,60.2-60.2C979.3,456.1,952.4,429.1,919.1,429.1z M919.1,665.1H239.5
		c-33.2,0-60.2,26.9-60.2,60.2c0,33.2,26.9,60.2,60.2,60.2h679.7c33.2,0,60.2-26.9,60.2-60.2C979.3,692.1,952.4,665.1,919.1,665.1z"
		/>
	<path class="st32" d="M238.5,312.5h679.7c33.2,0,60.2-26.9,60.2-60.2c0-33.2-26.9-60.2-60.2-60.2H238.5
		c-33.2,0-60.2,26.9-60.2,60.2C178.3,285.6,205.3,312.5,238.5,312.5z M918.1,428.1H238.5c-33.2,0-60.2,26.9-60.2,60.2
		c0,33.2,26.9,60.2,60.2,60.2h679.7c33.2,0,60.2-26.9,60.2-60.2C978.3,455.1,951.4,428.1,918.1,428.1z M918.1,664.1H238.5
		c-33.2,0-60.2,26.9-60.2,60.2c0,33.2,26.9,60.2,60.2,60.2h679.7c33.2,0,60.2-26.9,60.2-60.2C978.3,691.1,951.4,664.1,918.1,664.1z"
		/>
	<path class="st33" d="M237.5,311.5h679.7c33.2,0,60.2-26.9,60.2-60.2c0-33.2-26.9-60.2-60.2-60.2H237.5
		c-33.2,0-60.2,26.9-60.2,60.2C177.3,284.6,204.3,311.5,237.5,311.5z M917.2,427.2H237.5c-33.2,0-60.2,26.9-60.2,60.2
		c0,33.2,26.9,60.2,60.2,60.2h679.7c33.2,0,60.2-26.9,60.2-60.2C977.3,454.1,950.4,427.2,917.2,427.2z M917.2,663.1H237.5
		c-33.2,0-60.2,26.9-60.2,60.2c0,33.2,26.9,60.2,60.2,60.2h679.7c33.2,0,60.2-26.9,60.2-60.2C977.3,690.1,950.4,663.1,917.2,663.1z"
		/>
	<path class="st34" d="M236.5,310.5h679.7c33.2,0,60.2-26.9,60.2-60.2c0-33.2-26.9-60.2-60.2-60.2H236.5
		c-33.2,0-60.2,26.9-60.2,60.2C176.3,283.6,203.3,310.5,236.5,310.5z M916.2,426.2H236.5c-33.2,0-60.2,26.9-60.2,60.2
		c0,33.2,26.9,60.2,60.2,60.2h679.7c33.2,0,60.2-26.9,60.2-60.2C976.3,453.1,949.4,426.2,916.2,426.2z M916.2,662.1H236.5
		c-33.2,0-60.2,26.9-60.2,60.2c0,33.2,26.9,60.2,60.2,60.2h679.7c33.2,0,60.2-26.9,60.2-60.2C976.3,689.1,949.4,662.1,916.2,662.1z"
		/>
	<path class="st35" d="M235.5,309.5h679.7c33.2,0,60.2-26.9,60.2-60.2c0-33.2-26.9-60.2-60.2-60.2H235.5
		c-33.2,0-60.2,26.9-60.2,60.2C175.3,282.6,202.3,309.5,235.5,309.5z M915.2,425.2H235.5c-33.2,0-60.2,26.9-60.2,60.2
		c0,33.2,26.9,60.2,60.2,60.2h679.7c33.2,0,60.2-26.9,60.2-60.2C975.3,452.1,948.4,425.2,915.2,425.2z M915.2,661.2H235.5
		c-33.2,0-60.2,26.9-60.2,60.2c0,33.2,26.9,60.2,60.2,60.2h679.7c33.2,0,60.2-26.9,60.2-60.2C975.3,688.1,948.4,661.2,915.2,661.2z"
		/>
	<path class="st36" d="M234.5,308.5h679.7c33.2,0,60.2-26.9,60.2-60.2c0-33.2-26.9-60.2-60.2-60.2H234.5
		c-33.2,0-60.2,26.9-60.2,60.2C174.4,281.6,201.3,308.5,234.5,308.5z M914.2,424.2H234.5c-33.2,0-60.2,26.9-60.2,60.2
		c0,33.2,26.9,60.2,60.2,60.2h679.7c33.2,0,60.2-26.9,60.2-60.2C974.4,451.1,947.4,424.2,914.2,424.2z M914.2,660.2H234.5
		c-33.2,0-60.2,26.9-60.2,60.2c0,33.2,26.9,60.2,60.2,60.2h679.7c33.2,0,60.2-26.9,60.2-60.2C974.4,687.1,947.4,660.2,914.2,660.2z"
		/>
	<path class="st37" d="M233.5,307.6h679.7c33.2,0,60.2-26.9,60.2-60.2c0-33.2-26.9-60.2-60.2-60.2H233.5
		c-33.2,0-60.2,26.9-60.2,60.2C173.4,280.6,200.3,307.6,233.5,307.6z M913.2,423.2H233.5c-33.2,0-60.2,26.9-60.2,60.2
		c0,33.2,26.9,60.2,60.2,60.2h679.7c33.2,0,60.2-26.9,60.2-60.2C973.4,450.1,946.4,423.2,913.2,423.2z M913.2,659.2H233.5
		c-33.2,0-60.2,26.9-60.2,60.2c0,33.2,26.9,60.2,60.2,60.2h679.7c33.2,0,60.2-26.9,60.2-60.2C973.4,686.1,946.4,659.2,913.2,659.2z"
		/>
	<path class="st38" d="M232.5,306.6h679.7c33.2,0,60.2-26.9,60.2-60.2c0-33.2-26.9-60.2-60.2-60.2H232.5
		c-33.2,0-60.2,26.9-60.2,60.2C172.4,279.6,199.3,306.6,232.5,306.6z M912.2,422.2H232.5c-33.2,0-60.2,26.9-60.2,60.2
		c0,33.2,26.9,60.2,60.2,60.2h679.7c33.2,0,60.2-26.9,60.2-60.2C972.4,449.1,945.4,422.2,912.2,422.2z M912.2,658.2H232.5
		c-33.2,0-60.2,26.9-60.2,60.2c0,33.2,26.9,60.2,60.2,60.2h679.7c33.2,0,60.2-26.9,60.2-60.2C972.4,685.1,945.4,658.2,912.2,658.2z"
		/>
	<path class="st39" d="M231.6,305.6h679.7c33.2,0,60.2-26.9,60.2-60.2c0-33.2-26.9-60.2-60.2-60.2H231.6
		c-33.2,0-60.2,26.9-60.2,60.2C171.4,278.6,198.3,305.6,231.6,305.6z M911.2,421.2H231.6c-33.2,0-60.2,26.9-60.2,60.2
		c0,33.2,26.9,60.2,60.2,60.2h679.7c33.2,0,60.2-26.9,60.2-60.2C971.4,448.2,944.4,421.2,911.2,421.2z M911.2,657.2H231.6
		c-33.2,0-60.2,26.9-60.2,60.2c0,33.2,26.9,60.2,60.2,60.2h679.7c33.2,0,60.2-26.9,60.2-60.2C971.4,684.1,944.4,657.2,911.2,657.2z"
		/>
	<path class="st40" d="M230.6,304.6h679.7c33.2,0,60.2-26.9,60.2-60.2c0-33.2-26.9-60.2-60.2-60.2H230.6
		c-33.2,0-60.2,26.9-60.2,60.2C170.4,277.6,197.3,304.6,230.6,304.6z M910.2,420.2H230.6c-33.2,0-60.2,26.9-60.2,60.2
		c0,33.2,26.9,60.2,60.2,60.2h679.7c33.2,0,60.2-26.9,60.2-60.2C970.4,447.2,943.5,420.2,910.2,420.2z M910.2,656.2H230.6
		c-33.2,0-60.2,26.9-60.2,60.2c0,33.2,26.9,60.2,60.2,60.2h679.7c33.2,0,60.2-26.9,60.2-60.2C970.4,683.1,943.5,656.2,910.2,656.2z"
		/>
	<path class="st41" d="M229.6,303.6h679.7c33.2,0,60.2-26.9,60.2-60.2c0-33.2-26.9-60.2-60.2-60.2H229.6
		c-33.2,0-60.2,26.9-60.2,60.2C169.4,276.7,196.3,303.6,229.6,303.6z M909.2,419.2H229.6c-33.2,0-60.2,26.9-60.2,60.2
		c0,33.2,26.9,60.2,60.2,60.2h679.7c33.2,0,60.2-26.9,60.2-60.2C969.4,446.2,942.5,419.2,909.2,419.2z M909.2,655.2H229.6
		c-33.2,0-60.2,26.9-60.2,60.2c0,33.2,26.9,60.2,60.2,60.2h679.7c33.2,0,60.2-26.9,60.2-60.2C969.4,682.2,942.5,655.2,909.2,655.2z"
		/>
	<path class="st42" d="M228.6,302.6h679.7c33.2,0,60.2-26.9,60.2-60.2c0-33.2-26.9-60.2-60.2-60.2H228.6
		c-33.2,0-60.2,26.9-60.2,60.2C168.4,275.7,195.4,302.6,228.6,302.6z M908.2,418.2H228.6c-33.2,0-60.2,26.9-60.2,60.2
		c0,33.2,26.9,60.2,60.2,60.2h679.7c33.2,0,60.2-26.9,60.2-60.2C968.4,445.2,941.5,418.2,908.2,418.2z M908.2,654.2H228.6
		c-33.2,0-60.2,26.9-60.2,60.2c0,33.2,26.9,60.2,60.2,60.2h679.7c33.2,0,60.2-26.9,60.2-60.2C968.4,681.2,941.5,654.2,908.2,654.2z"
		/>
	<path class="st43" d="M227.6,301.6h679.7c33.2,0,60.2-26.9,60.2-60.2c0-33.2-26.9-60.2-60.2-60.2H227.6
		c-33.2,0-60.2,26.9-60.2,60.2C167.4,274.7,194.4,301.6,227.6,301.6z M907.3,417.3H227.6c-33.2,0-60.2,26.9-60.2,60.2
		c0,33.2,26.9,60.2,60.2,60.2h679.7c33.2,0,60.2-26.9,60.2-60.2C967.4,444.2,940.5,417.3,907.3,417.3z M907.3,653.2H227.6
		c-33.2,0-60.2,26.9-60.2,60.2c0,33.2,26.9,60.2,60.2,60.2h679.7c33.2,0,60.2-26.9,60.2-60.2C967.4,680.2,940.5,653.2,907.3,653.2z"
		/>
	<path class="st44" d="M226.6,300.6h679.7c33.2,0,60.2-26.9,60.2-60.2c0-33.2-26.9-60.2-60.2-60.2H226.6
		c-33.2,0-60.2,26.9-60.2,60.2C166.4,273.7,193.4,300.6,226.6,300.6z M906.3,416.3H226.6c-33.2,0-60.2,26.9-60.2,60.2
		c0,33.2,26.9,60.2,60.2,60.2h679.7c33.2,0,60.2-26.9,60.2-60.2C966.4,443.2,939.5,416.3,906.3,416.3z M906.3,652.2H226.6
		c-33.2,0-60.2,26.9-60.2,60.2c0,33.2,26.9,60.2,60.2,60.2h679.7c33.2,0,60.2-26.9,60.2-60.2C966.4,679.2,939.5,652.2,906.3,652.2z"
		/>
	<path class="st45" d="M225.6,299.6h679.7c33.2,0,60.2-26.9,60.2-60.2c0-33.2-26.9-60.2-60.2-60.2H225.6
		c-33.2,0-60.2,26.9-60.2,60.2C165.4,272.7,192.4,299.6,225.6,299.6z M905.3,415.3H225.6c-33.2,0-60.2,26.9-60.2,60.2
		c0,33.2,26.9,60.2,60.2,60.2h679.7c33.2,0,60.2-26.9,60.2-60.2C965.4,442.2,938.5,415.3,905.3,415.3z M905.3,651.3H225.6
		c-33.2,0-60.2,26.9-60.2,60.2c0,33.2,26.9,60.2,60.2,60.2h679.7c33.2,0,60.2-26.9,60.2-60.2C965.4,678.2,938.5,651.3,905.3,651.3z"
		/>
	<path class="st0" d="M224.6,298.6h679.7c33.2,0,60.2-26.9,60.2-60.2c0-33.2-26.9-60.2-60.2-60.2H224.6c-33.2,0-60.2,26.9-60.2,60.2
		C164.5,271.7,191.4,298.6,224.6,298.6z M904.3,414.3H224.6c-33.2,0-60.2,26.9-60.2,60.2c0,33.2,26.9,60.2,60.2,60.2h679.7
		c33.2,0,60.2-26.9,60.2-60.2C964.5,441.2,937.5,414.3,904.3,414.3z M904.3,650.3H224.6c-33.2,0-60.2,26.9-60.2,60.2
		c0,33.2,26.9,60.2,60.2,60.2h679.7c33.2,0,60.2-26.9,60.2-60.2C964.5,677.2,937.5,650.3,904.3,650.3z"/>
	<path class="st46" d="M223.6,297.7h679.7c33.2,0,60.2-26.9,60.2-60.2c0-33.2-26.9-60.2-60.2-60.2H223.6
		c-33.2,0-60.2,26.9-60.2,60.2C163.5,270.7,190.4,297.7,223.6,297.7z M903.3,413.3H223.6c-33.2,0-60.2,26.9-60.2,60.2
		c0,33.2,26.9,60.2,60.2,60.2h679.7c33.2,0,60.2-26.9,60.2-60.2C963.5,440.2,936.5,413.3,903.3,413.3z M903.3,649.3H223.6
		c-33.2,0-60.2,26.9-60.2,60.2c0,33.2,26.9,60.2,60.2,60.2h679.7c33.2,0,60.2-26.9,60.2-60.2C963.5,676.2,936.5,649.3,903.3,649.3z"
		/>
	<path class="st47" d="M222.6,296.7h679.7c33.2,0,60.2-26.9,60.2-60.2c0-33.2-26.9-60.2-60.2-60.2H222.6
		c-33.2,0-60.2,26.9-60.2,60.2C162.5,269.7,189.4,296.7,222.6,296.7z M902.3,412.3H222.6c-33.2,0-60.2,26.9-60.2,60.2
		c0,33.2,26.9,60.2,60.2,60.2h679.7c33.2,0,60.2-26.9,60.2-60.2C962.5,439.2,935.5,412.3,902.3,412.3z M902.3,648.3H222.6
		c-33.2,0-60.2,26.9-60.2,60.2c0,33.2,26.9,60.2,60.2,60.2h679.7c33.2,0,60.2-26.9,60.2-60.2C962.5,675.2,935.5,648.3,902.3,648.3z"
		/>
	<path class="st48" d="M221.7,295.7h679.7c33.2,0,60.2-26.9,60.2-60.2c0-33.2-26.9-60.2-60.2-60.2H221.7
		c-33.2,0-60.2,26.9-60.2,60.2C161.5,268.7,188.4,295.7,221.7,295.7z M901.3,411.3H221.7c-33.2,0-60.2,26.9-60.2,60.2
		c0,33.2,26.9,60.2,60.2,60.2h679.7c33.2,0,60.2-26.9,60.2-60.2C961.5,438.3,934.5,411.3,901.3,411.3z M901.3,647.3H221.7
		c-33.2,0-60.2,26.9-60.2,60.2c0,33.2,26.9,60.2,60.2,60.2h679.7c33.2,0,60.2-26.9,60.2-60.2C961.5,674.2,934.5,647.3,901.3,647.3z"
		/>
	<path class="st49" d="M220.7,294.7h679.7c33.2,0,60.2-26.9,60.2-60.2c0-33.2-26.9-60.2-60.2-60.2H220.7
		c-33.2,0-60.2,26.9-60.2,60.2C160.5,267.7,187.4,294.7,220.7,294.7z M900.3,410.3H220.7c-33.2,0-60.2,26.9-60.2,60.2
		c0,33.2,26.9,60.2,60.2,60.2h679.7c33.2,0,60.2-26.9,60.2-60.2C960.5,437.3,933.6,410.3,900.3,410.3z M900.3,646.3H220.7
		c-33.2,0-60.2,26.9-60.2,60.2c0,33.2,26.9,60.2,60.2,60.2h679.7c33.2,0,60.2-26.9,60.2-60.2C960.5,673.2,933.6,646.3,900.3,646.3z"
		/>
	<path class="st50" d="M219.7,293.7h679.7c33.2,0,60.2-26.9,60.2-60.2c0-33.2-26.9-60.2-60.2-60.2H219.7
		c-33.2,0-60.2,26.9-60.2,60.2C159.5,266.8,186.4,293.7,219.7,293.7z M899.3,409.3H219.7c-33.2,0-60.2,26.9-60.2,60.2
		c0,33.2,26.9,60.2,60.2,60.2h679.7c33.2,0,60.2-26.9,60.2-60.2C959.5,436.3,932.6,409.3,899.3,409.3z M899.3,645.3H219.7
		c-33.2,0-60.2,26.9-60.2,60.2c0,33.2,26.9,60.2,60.2,60.2h679.7c33.2,0,60.2-26.9,60.2-60.2C959.5,672.3,932.6,645.3,899.3,645.3z"
		/>
	<path class="st51" d="M218.7,292.7h679.7c33.2,0,60.2-26.9,60.2-60.2c0-33.2-26.9-60.2-60.2-60.2H218.7
		c-33.2,0-60.2,26.9-60.2,60.2C158.5,265.8,185.5,292.7,218.7,292.7z M898.3,408.3H218.7c-33.2,0-60.2,26.9-60.2,60.2
		c0,33.2,26.9,60.2,60.2,60.2h679.7c33.2,0,60.2-26.9,60.2-60.2C958.5,435.3,931.6,408.3,898.3,408.3z M898.3,644.3H218.7
		c-33.2,0-60.2,26.9-60.2,60.2c0,33.2,26.9,60.2,60.2,60.2h679.7c33.2,0,60.2-26.9,60.2-60.2C958.5,671.3,931.6,644.3,898.3,644.3z"
		/>
	<path class="st52" d="M217.7,291.7h679.7c33.2,0,60.2-26.9,60.2-60.2c0-33.2-26.9-60.2-60.2-60.2H217.7
		c-33.2,0-60.2,26.9-60.2,60.2C157.5,264.8,184.5,291.7,217.7,291.7z M897.4,407.4H217.7c-33.2,0-60.2,26.9-60.2,60.2
		c0,33.2,26.9,60.2,60.2,60.2h679.7c33.2,0,60.2-26.9,60.2-60.2C957.5,434.3,930.6,407.4,897.4,407.4z M897.4,643.3H217.7
		c-33.2,0-60.2,26.9-60.2,60.2c0,33.2,26.9,60.2,60.2,60.2h679.7c33.2,0,60.2-26.9,60.2-60.2C957.5,670.3,930.6,643.3,897.4,643.3z"
		/>
	<path class="st53" d="M216.7,290.7h679.7c33.2,0,60.2-26.9,60.2-60.2c0-33.2-26.9-60.2-60.2-60.2H216.7
		c-33.2,0-60.2,26.9-60.2,60.2C156.5,263.8,183.5,290.7,216.7,290.7z M896.4,406.4H216.7c-33.2,0-60.2,26.9-60.2,60.2
		c0,33.2,26.9,60.2,60.2,60.2h679.7c33.2,0,60.2-26.9,60.2-60.2C956.5,433.3,929.6,406.4,896.4,406.4z M896.4,642.3H216.7
		c-33.2,0-60.2,26.9-60.2,60.2c0,33.2,26.9,60.2,60.2,60.2h679.7c33.2,0,60.2-26.9,60.2-60.2C956.5,669.3,929.6,642.3,896.4,642.3z"
		/>
	<path class="st54" d="M215.7,289.7h679.7c33.2,0,60.2-26.9,60.2-60.2c0-33.2-26.9-60.2-60.2-60.2H215.7
		c-33.2,0-60.2,26.9-60.2,60.2C155.5,262.8,182.5,289.7,215.7,289.7z M895.4,405.4H215.7c-33.2,0-60.2,26.9-60.2,60.2
		c0,33.2,26.9,60.2,60.2,60.2h679.7c33.2,0,60.2-26.9,60.2-60.2C955.5,432.3,928.6,405.4,895.4,405.4z M895.4,641.4H215.7
		c-33.2,0-60.2,26.9-60.2,60.2c0,33.2,26.9,60.2,60.2,60.2h679.7c33.2,0,60.2-26.9,60.2-60.2C955.5,668.3,928.6,641.4,895.4,641.4z"
		/>
	<path class="st55" d="M214.7,288.7h679.7c33.2,0,60.2-26.9,60.2-60.2c0-33.2-26.9-60.2-60.2-60.2H214.7
		c-33.2,0-60.2,26.9-60.2,60.2C154.6,261.8,181.5,288.7,214.7,288.7z M894.4,404.4H214.7c-33.2,0-60.2,26.9-60.2,60.2
		c0,33.2,26.9,60.2,60.2,60.2h679.7c33.2,0,60.2-26.9,60.2-60.2C954.6,431.3,927.6,404.4,894.4,404.4z M894.4,640.4H214.7
		c-33.2,0-60.2,26.9-60.2,60.2c0,33.2,26.9,60.2,60.2,60.2h679.7c33.2,0,60.2-26.9,60.2-60.2C954.6,667.3,927.6,640.4,894.4,640.4z"
		/>
	<path class="st56" d="M213.7,287.8h679.7c33.2,0,60.2-26.9,60.2-60.2c0-33.2-26.9-60.2-60.2-60.2H213.7
		c-33.2,0-60.2,26.9-60.2,60.2C153.6,260.8,180.5,287.8,213.7,287.8z M893.4,403.4H213.7c-33.2,0-60.2,26.9-60.2,60.2
		c0,33.2,26.9,60.2,60.2,60.2h679.7c33.2,0,60.2-26.9,60.2-60.2C953.6,430.3,926.6,403.4,893.4,403.4z M893.4,639.4H213.7
		c-33.2,0-60.2,26.9-60.2,60.2c0,33.2,26.9,60.2,60.2,60.2h679.7c33.2,0,60.2-26.9,60.2-60.2C953.6,666.3,926.6,639.4,893.4,639.4z"
		/>
	<path class="st57" d="M212.7,286.8h679.7c33.2,0,60.2-26.9,60.2-60.2c0-33.2-26.9-60.2-60.2-60.2H212.7
		c-33.2,0-60.2,26.9-60.2,60.2C152.6,259.8,179.5,286.8,212.7,286.8z M892.4,402.4H212.7c-33.2,0-60.2,26.9-60.2,60.2
		c0,33.2,26.9,60.2,60.2,60.2h679.7c33.2,0,60.2-26.9,60.2-60.2C952.6,429.3,925.6,402.4,892.4,402.4z M892.4,638.4H212.7
		c-33.2,0-60.2,26.9-60.2,60.2c0,33.2,26.9,60.2,60.2,60.2h679.7c33.2,0,60.2-26.9,60.2-60.2C952.6,665.3,925.6,638.4,892.4,638.4z"
		/>
	<path class="st58" d="M211.8,285.8h679.7c33.2,0,60.2-26.9,60.2-60.2c0-33.2-26.9-60.2-60.2-60.2H211.8
		c-33.2,0-60.2,26.9-60.2,60.2C151.6,258.8,178.5,285.8,211.8,285.8z M891.4,401.4H211.8c-33.2,0-60.2,26.9-60.2,60.2
		c0,33.2,26.9,60.2,60.2,60.2h679.7c33.2,0,60.2-26.9,60.2-60.2C951.6,428.4,924.6,401.4,891.4,401.4z M891.4,637.4H211.8
		c-33.2,0-60.2,26.9-60.2,60.2c0,33.2,26.9,60.2,60.2,60.2h679.7c33.2,0,60.2-26.9,60.2-60.2C951.6,664.3,924.6,637.4,891.4,637.4z"
		/>
	<path class="st59" d="M210.8,284.8h679.7c33.2,0,60.2-26.9,60.2-60.2c0-33.2-26.9-60.2-60.2-60.2H210.8
		c-33.2,0-60.2,26.9-60.2,60.2C150.6,257.8,177.5,284.8,210.8,284.8z M890.4,400.4H210.8c-33.2,0-60.2,26.9-60.2,60.2
		c0,33.2,26.9,60.2,60.2,60.2h679.7c33.2,0,60.2-26.9,60.2-60.2C950.6,427.4,923.7,400.4,890.4,400.4z M890.4,636.4H210.8
		c-33.2,0-60.2,26.9-60.2,60.2c0,33.2,26.9,60.2,60.2,60.2h679.7c33.2,0,60.2-26.9,60.2-60.2C950.6,663.3,923.7,636.4,890.4,636.4z"
		/>
	<path class="st60" d="M209.8,283.8h679.7c33.2,0,60.2-26.9,60.2-60.2c0-33.2-26.9-60.2-60.2-60.2H209.8
		c-33.2,0-60.2,26.9-60.2,60.2C149.6,256.9,176.5,283.8,209.8,283.8z M889.4,399.4H209.8c-33.2,0-60.2,26.9-60.2,60.2
		c0,33.2,26.9,60.2,60.2,60.2h679.7c33.2,0,60.2-26.9,60.2-60.2C949.6,426.4,922.7,399.4,889.4,399.4z M889.4,635.4H209.8
		c-33.2,0-60.2,26.9-60.2,60.2c0,33.2,26.9,60.2,60.2,60.2h679.7c33.2,0,60.2-26.9,60.2-60.2C949.6,662.4,922.7,635.4,889.4,635.4z"
		/>
	<path class="st61" d="M208.8,282.8h679.7c33.2,0,60.2-26.9,60.2-60.2c0-33.2-26.9-60.2-60.2-60.2H208.8
		c-33.2,0-60.2,26.9-60.2,60.2C148.6,255.9,175.6,282.8,208.8,282.8z M888.4,398.4H208.8c-33.2,0-60.2,26.9-60.2,60.2
		c0,33.2,26.9,60.2,60.2,60.2h679.7c33.2,0,60.2-26.9,60.2-60.2C948.6,425.4,921.7,398.4,888.4,398.4z M888.4,634.4H208.8
		c-33.2,0-60.2,26.9-60.2,60.2c0,33.2,26.9,60.2,60.2,60.2h679.7c33.2,0,60.2-26.9,60.2-60.2C948.6,661.4,921.7,634.4,888.4,634.4z"
		/>
	<path class="st62" d="M207.8,281.8h679.7c33.2,0,60.2-26.9,60.2-60.2c0-33.2-26.9-60.2-60.2-60.2H207.8
		c-33.2,0-60.2,26.9-60.2,60.2C147.6,254.9,174.6,281.8,207.8,281.8z M887.5,397.5H207.8c-33.2,0-60.2,26.9-60.2,60.2
		c0,33.2,26.9,60.2,60.2,60.2h679.7c33.2,0,60.2-26.9,60.2-60.2C947.6,424.4,920.7,397.5,887.5,397.5z M887.5,633.4H207.8
		c-33.2,0-60.2,26.9-60.2,60.2c0,33.2,26.9,60.2,60.2,60.2h679.7c33.2,0,60.2-26.9,60.2-60.2C947.6,660.4,920.7,633.4,887.5,633.4z"
		/>
	<path class="st63" d="M206.8,280.8h679.7c33.2,0,60.2-26.9,60.2-60.2c0-33.2-26.9-60.2-60.2-60.2H206.8
		c-33.2,0-60.2,26.9-60.2,60.2C146.6,253.9,173.6,280.8,206.8,280.8z M886.5,396.5H206.8c-33.2,0-60.2,26.9-60.2,60.2
		c0,33.2,26.9,60.2,60.2,60.2h679.7c33.2,0,60.2-26.9,60.2-60.2C946.6,423.4,919.7,396.5,886.5,396.5z M886.5,632.4H206.8
		c-33.2,0-60.2,26.9-60.2,60.2c0,33.2,26.9,60.2,60.2,60.2h679.7c33.2,0,60.2-26.9,60.2-60.2C946.6,659.4,919.7,632.4,886.5,632.4z"
		/>
	<path class="st64" d="M205.8,279.8h679.7c33.2,0,60.2-26.9,60.2-60.2c0-33.2-26.9-60.2-60.2-60.2H205.8
		c-33.2,0-60.2,26.9-60.2,60.2C145.6,252.9,172.6,279.8,205.8,279.8z M885.5,395.5H205.8c-33.2,0-60.2,26.9-60.2,60.2
		c0,33.2,26.9,60.2,60.2,60.2h679.7c33.2,0,60.2-26.9,60.2-60.2C945.6,422.4,918.7,395.5,885.5,395.5z M885.5,631.5H205.8
		c-33.2,0-60.2,26.9-60.2,60.2c0,33.2,26.9,60.2,60.2,60.2h679.7c33.2,0,60.2-26.9,60.2-60.2C945.6,658.4,918.7,631.5,885.5,631.5z"
		/>
	<path class="st65" d="M204.8,278.8h679.7c33.2,0,60.2-26.9,60.2-60.2c0-33.2-26.9-60.2-60.2-60.2H204.8
		c-33.2,0-60.2,26.9-60.2,60.2C144.7,251.9,171.6,278.8,204.8,278.8z M884.5,394.5H204.8c-33.2,0-60.2,26.9-60.2,60.2
		c0,33.2,26.9,60.2,60.2,60.2h679.7c33.2,0,60.2-26.9,60.2-60.2C944.7,421.4,917.7,394.5,884.5,394.5z M884.5,630.5H204.8
		c-33.2,0-60.2,26.9-60.2,60.2c0,33.2,26.9,60.2,60.2,60.2h679.7c33.2,0,60.2-26.9,60.2-60.2C944.7,657.4,917.7,630.5,884.5,630.5z"
		/>
	<path class="st66" d="M203.8,277.9h679.7c33.2,0,60.2-26.9,60.2-60.2c0-33.2-26.9-60.2-60.2-60.2H203.8
		c-33.2,0-60.2,26.9-60.2,60.2C143.7,250.9,170.6,277.9,203.8,277.9z M883.5,393.5H203.8c-33.2,0-60.2,26.9-60.2,60.2
		c0,33.2,26.9,60.2,60.2,60.2h679.7c33.2,0,60.2-26.9,60.2-60.2C943.7,420.4,916.7,393.5,883.5,393.5z M883.5,629.5H203.8
		c-33.2,0-60.2,26.9-60.2,60.2c0,33.2,26.9,60.2,60.2,60.2h679.7c33.2,0,60.2-26.9,60.2-60.2C943.7,656.4,916.7,629.5,883.5,629.5z"
		/>
	<path class="st67" d="M202.8,276.9h679.7c33.2,0,60.2-26.9,60.2-60.2c0-33.2-26.9-60.2-60.2-60.2H202.8
		c-33.2,0-60.2,26.9-60.2,60.2C142.7,249.9,169.6,276.9,202.8,276.9z M882.5,392.5H202.8c-33.2,0-60.2,26.9-60.2,60.2
		c0,33.2,26.9,60.2,60.2,60.2h679.7c33.2,0,60.2-26.9,60.2-60.2C942.7,419.4,915.7,392.5,882.5,392.5z M882.5,628.5H202.8
		c-33.2,0-60.2,26.9-60.2,60.2c0,33.2,26.9,60.2,60.2,60.2h679.7c33.2,0,60.2-26.9,60.2-60.2C942.7,655.4,915.7,628.5,882.5,628.5z"
		/>
	<path class="st68" d="M201.9,275.9h679.7c33.2,0,60.2-26.9,60.2-60.2c0-33.2-26.9-60.2-60.2-60.2H201.9
		c-33.2,0-60.2,26.9-60.2,60.2C141.7,248.9,168.6,275.9,201.9,275.9z M881.5,391.5H201.9c-33.2,0-60.2,26.9-60.2,60.2
		c0,33.2,26.9,60.2,60.2,60.2h679.7c33.2,0,60.2-26.9,60.2-60.2C941.7,418.5,914.7,391.5,881.5,391.5z M881.5,627.5H201.9
		c-33.2,0-60.2,26.9-60.2,60.2c0,33.2,26.9,60.2,60.2,60.2h679.7c33.2,0,60.2-26.9,60.2-60.2C941.7,654.4,914.7,627.5,881.5,627.5z"
		/>
	<path class="st69" d="M200.9,274.9h679.7c33.2,0,60.2-26.9,60.2-60.2c0-33.2-26.9-60.2-60.2-60.2H200.9
		c-33.2,0-60.2,26.9-60.2,60.2C140.7,247.9,167.6,274.9,200.9,274.9z M880.5,390.5H200.9c-33.2,0-60.2,26.9-60.2,60.2
		c0,33.2,26.9,60.2,60.2,60.2h679.7c33.2,0,60.2-26.9,60.2-60.2C940.7,417.5,913.8,390.5,880.5,390.5z M880.5,626.5H200.9
		c-33.2,0-60.2,26.9-60.2,60.2s26.9,60.2,60.2,60.2h679.7c33.2,0,60.2-26.9,60.2-60.2S913.8,626.5,880.5,626.5z"/>
	<path class="st70" d="M199.9,273.9h679.7c33.2,0,60.2-26.9,60.2-60.2c0-33.2-26.9-60.2-60.2-60.2H199.9
		c-33.2,0-60.2,26.9-60.2,60.2C139.7,247,166.6,273.9,199.9,273.9z M879.5,389.5H199.9c-33.2,0-60.2,26.9-60.2,60.2
		c0,33.2,26.9,60.2,60.2,60.2h679.7c33.2,0,60.2-26.9,60.2-60.2C939.7,416.5,912.8,389.5,879.5,389.5z M879.5,625.5H199.9
		c-33.2,0-60.2,26.9-60.2,60.2c0,33.2,26.9,60.2,60.2,60.2h679.7c33.2,0,60.2-26.9,60.2-60.2C939.7,652.5,912.8,625.5,879.5,625.5z"
		/>
	<path class="st71" d="M198.9,272.9h679.7c33.2,0,60.2-26.9,60.2-60.2c0-33.2-26.9-60.2-60.2-60.2H198.9
		c-33.2,0-60.2,26.9-60.2,60.2C138.7,246,165.7,272.9,198.9,272.9z M878.5,388.5H198.9c-33.2,0-60.2,26.9-60.2,60.2
		c0,33.2,26.9,60.2,60.2,60.2h679.7c33.2,0,60.2-26.9,60.2-60.2C938.7,415.5,911.8,388.5,878.5,388.5z M878.5,624.5H198.9
		c-33.2,0-60.2,26.9-60.2,60.2c0,33.2,26.9,60.2,60.2,60.2h679.7c33.2,0,60.2-26.9,60.2-60.2C938.7,651.5,911.8,624.5,878.5,624.5z"
		/>
	<path class="st72" d="M197.9,271.9h679.7c33.2,0,60.2-26.9,60.2-60.2c0-33.2-26.9-60.2-60.2-60.2H197.9
		c-33.2,0-60.2,26.9-60.2,60.2C137.7,245,164.7,271.9,197.9,271.9z M877.6,387.6H197.9c-33.2,0-60.2,26.9-60.2,60.2
		c0,33.2,26.9,60.2,60.2,60.2h679.7c33.2,0,60.2-26.9,60.2-60.2C937.7,414.5,910.8,387.6,877.6,387.6z M877.6,623.5H197.9
		c-33.2,0-60.2,26.9-60.2,60.2c0,33.2,26.9,60.2,60.2,60.2h679.7c33.2,0,60.2-26.9,60.2-60.2C937.7,650.5,910.8,623.5,877.6,623.5z"
		/>
	<path class="st73" d="M196.9,270.9h679.7c33.2,0,60.2-26.9,60.2-60.2c0-33.2-26.9-60.2-60.2-60.2H196.9
		c-33.2,0-60.2,26.9-60.2,60.2C136.7,244,163.7,270.9,196.9,270.9z M876.6,386.6H196.9c-33.2,0-60.2,26.9-60.2,60.2
		c0,33.2,26.9,60.2,60.2,60.2h679.7c33.2,0,60.2-26.9,60.2-60.2C936.7,413.5,909.8,386.6,876.6,386.6z M876.6,622.5H196.9
		c-33.2,0-60.2,26.9-60.2,60.2c0,33.2,26.9,60.2,60.2,60.2h679.7c33.2,0,60.2-26.9,60.2-60.2C936.7,649.5,909.8,622.5,876.6,622.5z"
		/>
	<path class="st74" d="M195.9,269.9h679.7c33.2,0,60.2-26.9,60.2-60.2c0-33.2-26.9-60.2-60.2-60.2H195.9
		c-33.2,0-60.2,26.9-60.2,60.2C135.7,243,162.7,269.9,195.9,269.9z M875.6,385.6H195.9c-33.2,0-60.2,26.9-60.2,60.2
		c0,33.2,26.9,60.2,60.2,60.2h679.7c33.2,0,60.2-26.9,60.2-60.2C935.7,412.5,908.8,385.6,875.6,385.6z M875.6,621.6H195.9
		c-33.2,0-60.2,26.9-60.2,60.2s26.9,60.2,60.2,60.2h679.7c33.2,0,60.2-26.9,60.2-60.2S908.8,621.6,875.6,621.6z"/>
	<path class="st75" d="M194.9,268.9h679.7c33.2,0,60.2-26.9,60.2-60.2c0-33.2-26.9-60.2-60.2-60.2H194.9
		c-33.2,0-60.2,26.9-60.2,60.2C134.8,242,161.7,268.9,194.9,268.9z M874.6,384.6H194.9c-33.2,0-60.2,26.9-60.2,60.2
		c0,33.2,26.9,60.2,60.2,60.2h679.7c33.2,0,60.2-26.9,60.2-60.2C934.8,411.5,907.8,384.6,874.6,384.6z M874.6,620.6H194.9
		c-33.2,0-60.2,26.9-60.2,60.2c0,33.2,26.9,60.2,60.2,60.2h679.7c33.2,0,60.2-26.9,60.2-60.2C934.8,647.5,907.8,620.6,874.6,620.6z"
		/>
	<path class="st76" d="M193.9,268h679.7c33.2,0,60.2-26.9,60.2-60.2c0-33.2-26.9-60.2-60.2-60.2H193.9c-33.2,0-60.2,26.9-60.2,60.2
		C133.8,241,160.7,268,193.9,268z M873.6,383.6H193.9c-33.2,0-60.2,26.9-60.2,60.2c0,33.2,26.9,60.2,60.2,60.2h679.7
		c33.2,0,60.2-26.9,60.2-60.2C933.8,410.5,906.8,383.6,873.6,383.6z M873.6,619.6H193.9c-33.2,0-60.2,26.9-60.2,60.2
		c0,33.2,26.9,60.2,60.2,60.2h679.7c33.2,0,60.2-26.9,60.2-60.2C933.8,646.5,906.8,619.6,873.6,619.6z"/>
	<path class="st77" d="M192.9,267h679.7c33.2,0,60.2-26.9,60.2-60.2c0-33.2-26.9-60.2-60.2-60.2H192.9c-33.2,0-60.2,26.9-60.2,60.2
		C132.8,240,159.7,267,192.9,267z M872.6,382.6H192.9c-33.2,0-60.2,26.9-60.2,60.2c0,33.2,26.9,60.2,60.2,60.2h679.7
		c33.2,0,60.2-26.9,60.2-60.2C932.8,409.5,905.8,382.6,872.6,382.6z M872.6,618.6H192.9c-33.2,0-60.2,26.9-60.2,60.2
		c0,33.2,26.9,60.2,60.2,60.2h679.7c33.2,0,60.2-26.9,60.2-60.2C932.8,645.5,905.8,618.6,872.6,618.6z"/>
	<path class="st78" d="M192,266h679.7c33.2,0,60.2-26.9,60.2-60.2c0-33.2-26.9-60.2-60.2-60.2H192c-33.2,0-60.2,26.9-60.2,60.2
		C131.8,239,158.7,266,192,266z M871.6,381.6H192c-33.2,0-60.2,26.9-60.2,60.2c0,33.2,26.9,60.2,60.2,60.2h679.7
		c33.2,0,60.2-26.9,60.2-60.2C931.8,408.5,904.8,381.6,871.6,381.6z M871.6,617.6H192c-33.2,0-60.2,26.9-60.2,60.2
		c0,33.2,26.9,60.2,60.2,60.2h679.7c33.2,0,60.2-26.9,60.2-60.2C931.8,644.5,904.8,617.6,871.6,617.6z"/>
	<path class="st79" d="M191,265h679.7c33.2,0,60.2-26.9,60.2-60.2c0-33.2-26.9-60.2-60.2-60.2H191c-33.2,0-60.2,26.9-60.2,60.2
		C130.8,238,157.7,265,191,265z M870.6,380.6H191c-33.2,0-60.2,26.9-60.2,60.2c0,33.2,26.9,60.2,60.2,60.2h679.7
		c33.2,0,60.2-26.9,60.2-60.2C930.8,407.6,903.9,380.6,870.6,380.6z M870.6,616.6H191c-33.2,0-60.2,26.9-60.2,60.2
		s26.9,60.2,60.2,60.2h679.7c33.2,0,60.2-26.9,60.2-60.2S903.9,616.6,870.6,616.6z"/>
	<path class="st80" d="M190,264h679.7c33.2,0,60.2-26.9,60.2-60.2c0-33.2-26.9-60.2-60.2-60.2H190c-33.2,0-60.2,26.9-60.2,60.2
		C129.8,237.1,156.7,264,190,264z M869.6,379.6H190c-33.2,0-60.2,26.9-60.2,60.2c0,33.2,26.9,60.2,60.2,60.2h679.7
		c33.2,0,60.2-26.9,60.2-60.2C929.8,406.6,902.9,379.6,869.6,379.6z M869.6,615.6H190c-33.2,0-60.2,26.9-60.2,60.2
		c0,33.2,26.9,60.2,60.2,60.2h679.7c33.2,0,60.2-26.9,60.2-60.2C929.8,642.6,902.9,615.6,869.6,615.6z"/>
	<path class="st81" d="M189,263h679.7c33.2,0,60.2-26.9,60.2-60.2c0-33.2-26.9-60.2-60.2-60.2H189c-33.2,0-60.2,26.9-60.2,60.2
		C128.8,236.1,155.8,263,189,263z M868.6,378.6H189c-33.2,0-60.2,26.9-60.2,60.2c0,33.2,26.9,60.2,60.2,60.2h679.7
		c33.2,0,60.2-26.9,60.2-60.2C928.8,405.6,901.9,378.6,868.6,378.6z M868.6,614.6H189c-33.2,0-60.2,26.9-60.2,60.2
		c0,33.2,26.9,60.2,60.2,60.2h679.7c33.2,0,60.2-26.9,60.2-60.2C928.8,641.6,901.9,614.6,868.6,614.6z"/>
	<path class="st82" d="M188,262h679.7c33.2,0,60.2-26.9,60.2-60.2c0-33.2-26.9-60.2-60.2-60.2H188c-33.2,0-60.2,26.9-60.2,60.2
		C127.8,235.1,154.8,262,188,262z M867.6,377.6H188c-33.2,0-60.2,26.9-60.2,60.2c0,33.2,26.9,60.2,60.2,60.2h679.7
		c33.2,0,60.2-26.9,60.2-60.2C927.8,404.6,900.9,377.6,867.6,377.6z M867.6,613.6H188c-33.2,0-60.2,26.9-60.2,60.2
		c0,33.2,26.9,60.2,60.2,60.2h679.7c33.2,0,60.2-26.9,60.2-60.2C927.8,640.6,900.9,613.6,867.6,613.6z"/>
	<path class="st83" d="M187,261h679.7c33.2,0,60.2-26.9,60.2-60.2c0-33.2-26.9-60.2-60.2-60.2H187c-33.2,0-60.2,26.9-60.2,60.2
		C126.8,234.1,153.8,261,187,261z M866.7,376.7H187c-33.2,0-60.2,26.9-60.2,60.2c0,33.2,26.9,60.2,60.2,60.2h679.7
		c33.2,0,60.2-26.9,60.2-60.2C926.8,403.6,899.9,376.7,866.7,376.7z M866.7,612.6H187c-33.2,0-60.2,26.9-60.2,60.2
		c0,33.2,26.9,60.2,60.2,60.2h679.7c33.2,0,60.2-26.9,60.2-60.2C926.8,639.6,899.9,612.6,866.7,612.6z"/>
	<path class="st84" d="M186,260h679.7c33.2,0,60.2-26.9,60.2-60.2c0-33.2-26.9-60.2-60.2-60.2H186c-33.2,0-60.2,26.9-60.2,60.2
		C125.8,233.1,152.8,260,186,260z M865.7,375.7H186c-33.2,0-60.2,26.9-60.2,60.2c0,33.2,26.9,60.2,60.2,60.2h679.7
		c33.2,0,60.2-26.9,60.2-60.2C925.8,402.6,898.9,375.7,865.7,375.7z M865.7,611.7H186c-33.2,0-60.2,26.9-60.2,60.2
		S152.8,732,186,732h679.7c33.2,0,60.2-26.9,60.2-60.2S898.9,611.7,865.7,611.7z"/>
	<path class="st85" d="M185,259h679.7c33.2,0,60.2-26.9,60.2-60.2c0-33.2-26.9-60.2-60.2-60.2H185c-33.2,0-60.2,26.9-60.2,60.2
		C124.9,232.1,151.8,259,185,259z M864.7,374.7H185c-33.2,0-60.2,26.9-60.2,60.2c0,33.2,26.9,60.2,60.2,60.2h679.7
		c33.2,0,60.2-26.9,60.2-60.2C924.9,401.6,897.9,374.7,864.7,374.7z M864.7,610.7H185c-33.2,0-60.2,26.9-60.2,60.2
		c0,33.2,26.9,60.2,60.2,60.2h679.7c33.2,0,60.2-26.9,60.2-60.2C924.9,637.6,897.9,610.7,864.7,610.7z"/>
	<path class="st86" d="M184,258.1h679.7c33.2,0,60.2-26.9,60.2-60.2c0-33.2-26.9-60.2-60.2-60.2H184c-33.2,0-60.2,26.9-60.2,60.2
		C123.9,231.1,150.8,258.1,184,258.1z M863.7,373.7H184c-33.2,0-60.2,26.9-60.2,60.2c0,33.2,26.9,60.2,60.2,60.2h679.7
		c33.2,0,60.2-26.9,60.2-60.2C923.9,400.6,896.9,373.7,863.7,373.7z M863.7,609.7H184c-33.2,0-60.2,26.9-60.2,60.2
		c0,33.2,26.9,60.2,60.2,60.2h679.7c33.2,0,60.2-26.9,60.2-60.2C923.9,636.6,896.9,609.7,863.7,609.7z"/>
	<path class="st87" d="M183,257.1h679.7c33.2,0,60.2-26.9,60.2-60.2c0-33.2-26.9-60.2-60.2-60.2H183c-33.2,0-60.2,26.9-60.2,60.2
		C122.9,230.1,149.8,257.1,183,257.1z M862.7,372.7H183c-33.2,0-60.2,26.9-60.2,60.2c0,33.2,26.9,60.2,60.2,60.2h679.7
		c33.2,0,60.2-26.9,60.2-60.2C922.9,399.6,895.9,372.7,862.7,372.7z M862.7,608.7H183c-33.2,0-60.2,26.9-60.2,60.2
		c0,33.2,26.9,60.2,60.2,60.2h679.7c33.2,0,60.2-26.9,60.2-60.2C922.9,635.6,895.9,608.7,862.7,608.7z"/>
	<path class="st88" d="M182.1,256.1h679.7c33.2,0,60.2-26.9,60.2-60.2c0-33.2-26.9-60.2-60.2-60.2H182.1
		c-33.2,0-60.2,26.9-60.2,60.2C121.9,229.1,148.8,256.1,182.1,256.1z M861.7,371.7H182.1c-33.2,0-60.2,26.9-60.2,60.2
		c0,33.2,26.9,60.2,60.2,60.2h679.7c33.2,0,60.2-26.9,60.2-60.2C921.9,398.6,894.9,371.7,861.7,371.7z M861.7,607.7H182.1
		c-33.2,0-60.2,26.9-60.2,60.2c0,33.2,26.9,60.2,60.2,60.2h679.7c33.2,0,60.2-26.9,60.2-60.2C921.9,634.6,894.9,607.7,861.7,607.7z"
		/>
	<path class="st89" d="M181.1,255.1h679.7c33.2,0,60.2-26.9,60.2-60.2c0-33.2-26.9-60.2-60.2-60.2H181.1
		c-33.2,0-60.2,26.9-60.2,60.2C120.9,228.1,147.8,255.1,181.1,255.1z M860.7,370.7H181.1c-33.2,0-60.2,26.9-60.2,60.2
		c0,33.2,26.9,60.2,60.2,60.2h679.7c33.2,0,60.2-26.9,60.2-60.2C920.9,397.7,894,370.7,860.7,370.7z M860.7,606.7H181.1
		c-33.2,0-60.2,26.9-60.2,60.2s26.9,60.2,60.2,60.2h679.7c33.2,0,60.2-26.9,60.2-60.2S894,606.7,860.7,606.7z"/>
	<path class="st90" d="M180.1,254.1h679.7c33.2,0,60.2-26.9,60.2-60.2c0-33.2-26.9-60.2-60.2-60.2H180.1
		c-33.2,0-60.2,26.9-60.2,60.2C119.9,227.2,146.8,254.1,180.1,254.1z M859.7,369.7H180.1c-33.2,0-60.2,26.9-60.2,60.2
		c0,33.2,26.9,60.2,60.2,60.2h679.7c33.2,0,60.2-26.9,60.2-60.2C919.9,396.7,893,369.7,859.7,369.7z M859.7,605.7H180.1
		c-33.2,0-60.2,26.9-60.2,60.2c0,33.2,26.9,60.2,60.2,60.2h679.7c33.2,0,60.2-26.9,60.2-60.2C919.9,632.7,893,605.7,859.7,605.7z"/>
	<path class="st91" d="M179.1,253.1h679.7c33.2,0,60.2-26.9,60.2-60.2c0-33.2-26.9-60.2-60.2-60.2H179.1
		c-33.2,0-60.2,26.9-60.2,60.2C118.9,226.2,145.9,253.1,179.1,253.1z M858.7,368.7H179.1c-33.2,0-60.2,26.9-60.2,60.2
		c0,33.2,26.9,60.2,60.2,60.2h679.7c33.2,0,60.2-26.9,60.2-60.2C918.9,395.7,892,368.7,858.7,368.7z M858.7,604.7H179.1
		c-33.2,0-60.2,26.9-60.2,60.2c0,33.2,26.9,60.2,60.2,60.2h679.7c33.2,0,60.2-26.9,60.2-60.2C918.9,631.7,892,604.7,858.7,604.7z"/>
	<path class="st92" d="M178.1,252.1h679.7c33.2,0,60.2-26.9,60.2-60.2c0-33.2-26.9-60.2-60.2-60.2H178.1
		c-33.2,0-60.2,26.9-60.2,60.2C117.9,225.2,144.9,252.1,178.1,252.1z M857.7,367.7H178.1c-33.2,0-60.2,26.9-60.2,60.2
		c0,33.2,26.9,60.2,60.2,60.2h679.7c33.2,0,60.2-26.9,60.2-60.2C917.9,394.7,891,367.7,857.7,367.7z M857.7,603.7H178.1
		c-33.2,0-60.2,26.9-60.2,60.2c0,33.2,26.9,60.2,60.2,60.2h679.7c33.2,0,60.2-26.9,60.2-60.2C917.9,630.7,891,603.7,857.7,603.7z"/>
	<path class="st93" d="M177.1,251.1h679.7c33.2,0,60.2-26.9,60.2-60.2c0-33.2-26.9-60.2-60.2-60.2H177.1
		c-33.2,0-60.2,26.9-60.2,60.2C116.9,224.2,143.9,251.1,177.1,251.1z M856.8,366.8H177.1c-33.2,0-60.2,26.9-60.2,60.2
		c0,33.2,26.9,60.2,60.2,60.2h679.7c33.2,0,60.2-26.9,60.2-60.2C916.9,393.7,890,366.8,856.8,366.8z M856.8,602.7H177.1
		c-33.2,0-60.2,26.9-60.2,60.2c0,33.2,26.9,60.2,60.2,60.2h679.7c33.2,0,60.2-26.9,60.2-60.2C916.9,629.7,890,602.7,856.8,602.7z"/>
	<path class="st94" d="M176.1,250.1h679.7c33.2,0,60.2-26.9,60.2-60.2c0-33.2-26.9-60.2-60.2-60.2H176.1
		c-33.2,0-60.2,26.9-60.2,60.2C115.9,223.2,142.9,250.1,176.1,250.1z M855.8,365.8H176.1c-33.2,0-60.2,26.9-60.2,60.2
		c0,33.2,26.9,60.2,60.2,60.2h679.7c33.2,0,60.2-26.9,60.2-60.2C915.9,392.7,889,365.8,855.8,365.8z M855.8,601.8H176.1
		c-33.2,0-60.2,26.9-60.2,60.2s26.9,60.2,60.2,60.2h679.7c33.2,0,60.2-26.9,60.2-60.2S889,601.8,855.8,601.8z"/>
	<path class="st95" d="M175.1,249.1h679.7c33.2,0,60.2-26.9,60.2-60.2c0-33.2-26.9-60.2-60.2-60.2H175.1
		c-33.2,0-60.2,26.9-60.2,60.2C115,222.2,141.9,249.1,175.1,249.1z M854.8,364.8H175.1c-33.2,0-60.2,26.9-60.2,60.2
		c0,33.2,26.9,60.2,60.2,60.2h679.7c33.2,0,60.2-26.9,60.2-60.2C915,391.7,888,364.8,854.8,364.8z M854.8,600.8H175.1
		c-33.2,0-60.2,26.9-60.2,60.2c0,33.2,26.9,60.2,60.2,60.2h679.7c33.2,0,60.2-26.9,60.2-60.2C915,627.7,888,600.8,854.8,600.8z"/>
	<path class="st96" d="M174.1,248.1h679.7c33.2,0,60.2-26.9,60.2-60.2c0-33.2-26.9-60.2-60.2-60.2H174.1
		c-33.2,0-60.2,26.9-60.2,60.2C114,221.2,140.9,248.1,174.1,248.1z M853.8,363.8H174.1c-33.2,0-60.2,26.9-60.2,60.2
		c0,33.2,26.9,60.2,60.2,60.2h679.7c33.2,0,60.2-26.9,60.2-60.2C914,390.7,887,363.8,853.8,363.8z M853.8,599.8H174.1
		c-33.2,0-60.2,26.9-60.2,60.2c0,33.2,26.9,60.2,60.2,60.2h679.7c33.2,0,60.2-26.9,60.2-60.2C914,626.7,887,599.8,853.8,599.8z"/>
	<path class="st97" d="M173.1,247.2h679.7c33.2,0,60.2-26.9,60.2-60.2c0-33.2-26.9-60.2-60.2-60.2H173.1
		c-33.2,0-60.2,26.9-60.2,60.2C113,220.2,139.9,247.2,173.1,247.2z M852.8,362.8H173.1c-33.2,0-60.2,26.9-60.2,60.2
		c0,33.2,26.9,60.2,60.2,60.2h679.7c33.2,0,60.2-26.9,60.2-60.2C913,389.7,886,362.8,852.8,362.8z M852.8,598.8H173.1
		c-33.2,0-60.2,26.9-60.2,60.2c0,33.2,26.9,60.2,60.2,60.2h679.7c33.2,0,60.2-26.9,60.2-60.2C913,625.7,886,598.8,852.8,598.8z"/>
	<path class="st98" d="M172.2,246.2h679.7c33.2,0,60.2-26.9,60.2-60.2c0-33.2-26.9-60.2-60.2-60.2H172.2
		c-33.2,0-60.2,26.9-60.2,60.2C112,219.2,138.9,246.2,172.2,246.2z M851.8,361.8H172.2c-33.2,0-60.2,26.9-60.2,60.2
		c0,33.2,26.9,60.2,60.2,60.2h679.7c33.2,0,60.2-26.9,60.2-60.2C912,388.7,885,361.8,851.8,361.8z M851.8,597.8H172.2
		c-33.2,0-60.2,26.9-60.2,60.2c0,33.2,26.9,60.2,60.2,60.2h679.7c33.2,0,60.2-26.9,60.2-60.2C912,624.7,885,597.8,851.8,597.8z"/>
	<path class="st99" d="M171.2,245.2h679.7c33.2,0,60.2-26.9,60.2-60.2c0-33.2-26.9-60.2-60.2-60.2H171.2
		c-33.2,0-60.2,26.9-60.2,60.2C111,218.2,137.9,245.2,171.2,245.2z M850.8,360.8H171.2c-33.2,0-60.2,26.9-60.2,60.2
		c0,33.2,26.9,60.2,60.2,60.2h679.7c33.2,0,60.2-26.9,60.2-60.2C911,387.8,884,360.8,850.8,360.8z M850.8,596.8H171.2
		c-33.2,0-60.2,26.9-60.2,60.2s26.9,60.2,60.2,60.2h679.7c33.2,0,60.2-26.9,60.2-60.2S884,596.8,850.8,596.8z"/>
	<path class="gray" d="M170.2,244.2h679.7c33.2,0,60.2-26.9,60.2-60.2c0-33.2-26.9-60.2-60.2-60.2H170.2
		c-33.2,0-60.2,26.9-60.2,60.2C110,217.2,136.9,244.2,170.2,244.2z M849.8,359.8H170.2c-33.2,0-60.2,26.9-60.2,60.2
		c0,33.2,26.9,60.2,60.2,60.2h679.7c33.2,0,60.2-26.9,60.2-60.2C910,386.8,883.1,359.8,849.8,359.8z M849.8,595.8H170.2
		c-33.2,0-60.2,26.9-60.2,60.2c0,33.2,26.9,60.2,60.2,60.2h679.7c33.2,0,60.2-26.9,60.2-60.2C910,622.8,883.1,595.8,849.8,595.8z"/>
</g>
<path class="white" d="M170.2,244.2h679.7c33.2,0,60.2-26.9,60.2-60.2c0-33.2-26.9-60.2-60.2-60.2H170.2
	c-33.2,0-60.2,26.9-60.2,60.2C110,217.2,136.9,244.2,170.2,244.2z M849.8,595.8H170.2c-33.2,0-60.2,26.9-60.2,60.2
	c0,33.2,26.9,60.2,60.2,60.2h679.7c33.2,0,60.2-26.9,60.2-60.2C910,622.8,883.1,595.8,849.8,595.8z M849.8,359.8H170.2
	c-33.2,0-60.2,26.9-60.2,60.2c0,33.2,26.9,60.2,60.2,60.2h679.7c33.2,0,60.2-26.9,60.2-60.2C910,386.8,883.1,359.8,849.8,359.8z"/>
</svg>
